<?xml version="1.0" encoding="utf-8"?>
<!-- Generator: Adobe Illustrator 22.1.0, SVG Export Plug-In . SVG Version: 6.00 Build 0)  -->
<svg version="1.1" id="Layer_1" xmlns="http://www.w3.org/2000/svg" xmlns:xlink="http://www.w3.org/1999/xlink" x="0px" y="0px"
	 viewBox="0 0 560.1 329.4" style="enable-background:new 0 0 560.1 329.4;" xml:space="preserve">
<style type="text/css">
	.st0{fill:#FFFFFF;}
</style>
<g>
	<g>
		<path class="st0" d="M53.8,170.2c0.6-0.3,1.1-0.6,1.6-1c0.5-0.3,0.9-0.9,0.9-1.6c0.1-0.7-0.1-1.4-0.5-1.9
			c-0.9-1.1-1.7-2.2-2.6-3.2c-1.9-2.5-3.9-5.1-6.3-7.3c-2.3-2.1-4.8-3.8-7.2-5.3c-1-0.7-2.1-1.4-3.1-2.1c-0.1-0.1-0.2-0.1-0.2-0.1
			l-9.6-4.8c-0.1,0-0.1,0-0.2-0.1c-6.5-2.5-12.5-1.1-19.4,1.6c-0.1,0-0.1,0.1-0.2,0.1c-0.4,0.2-0.8,0.7-1,1.2
			c-0.2,0.6-0.2,1.3,0.1,1.9C14.6,167.1,38.6,178.6,53.8,170.2z"/>
		<path class="st0" d="M8.9,31.9c-0.1,0-0.2,0.1-0.2,0.1c-0.4,0.2-0.7,0.6-0.9,1.1c-4,10.4-4.1,23.9,0,36.1
			c3.4,10.4,9.4,18.4,16.4,22c0.5,0.3,1.1,0.2,1.6,0c0,0,0,0,0,0c0.5-0.3,0.9-0.8,1-1.4c6.1-26.6,0.6-46-16.3-57.6
			C10,31.8,9.4,31.8,8.9,31.9z"/>
		<path class="st0" d="M38.7,136.3c0.2,0,0.4-0.1,0.5-0.2c0.3-0.2,0.5-0.4,0.7-0.7c0.3-0.5,0.4-1.1,0.3-1.7
			C36.5,109,20,91.6,1.8,93.1c-0.2,0-0.5,0.1-0.7,0.2c-0.3,0.2-0.5,0.4-0.7,0.7c-0.3,0.5-0.5,1.2-0.3,1.8
			C4.6,120.7,22.3,139.2,38.7,136.3z"/>
		<path class="st0" d="M70.2,208.6c0.6-0.3,1.1-0.6,1.6-1c0.5-0.3,0.8-0.9,0.9-1.5c0.1-0.6,0-1.3-0.4-1.8
			c-5.3-7.7-10.3-14.3-17.6-18.2c-11.2-9.1-22.9-6.2-30.7-3.2c-0.1,0-0.2,0.1-0.2,0.1c-0.4,0.2-0.8,0.6-1,1.2
			c-0.2,0.6-0.2,1.3,0.1,1.9C31.4,205.5,55.2,216.9,70.2,208.6z"/>
		<path class="st0" d="M197.5,271.7c-0.3-0.6-0.8-0.9-1.3-1.1c-9.5-1.8-19.3-0.2-27.7,4.4c-9.7,5.4-16.4,14.3-18.3,24.5
			c-0.1,0.6,0,1.2,0.3,1.7c0.3,0.5,0.7,0.9,1.2,1c8.8,2,18.1,0.5,26.4-4c9.5-5.2,16.6-14.2,19.6-24.6
			C197.8,273,197.8,272.3,197.5,271.7z"/>
		<path class="st0" d="M161.5,265.8c-0.2-0.6-0.7-1.1-1.3-1.2c-11-3.2-22.1-2.1-31.3,2.9c-8.1,4.5-14,11.6-17,20.6
			c-0.2,0.6-0.2,1.3,0.1,1.8c0.2,0.6,0.7,1,1.2,1.2c10.3,3.3,21,2.3,30.2-2.8c8-4.4,14.2-11.5,18-20.6
			C161.8,267.1,161.8,266.4,161.5,265.8z"/>
		<path class="st0" d="M102.9,236.8c0.4-0.4,0.7-1,0.7-1.6c0-0.6-0.2-1.2-0.6-1.7c-7-7.8-14.6-11.7-23.4-12.2l-0.3-0.1l-4.6-0.7
			c-5.1-1.2-10-0.3-15.5,2.7c-2.8,1.5-5.5,3.5-8.3,5.6c-0.5,0.4-0.8,1-0.9,1.6c-0.1,0.7,0.1,1.3,0.5,1.8c11.4,13.6,31,17.7,45.5,9.7
			C98.6,240.5,100.9,238.8,102.9,236.8z"/>
		<path class="st0" d="M35.7,87.1c-0.1,2.4,0.5,4.6,1.1,6.8c0.2,0.9,0.5,1.8,0.7,2.6c0.1,0.6,0.4,1.1,0.9,1.4c0.4,0.3,1,0.4,1.5,0.2
			c0.8-0.2,1.6-0.4,2.5-0.6c1.7-0.3,3.4-0.7,4.9-1.5c0.4-0.2,0.9-0.5,1.2-0.8c9.5-7.9,15.5-19,17.8-33c0.3-2,0.2-4,0.1-6
			c-0.1-0.9-0.1-1.8-0.1-2.7c0-0.6-0.2-1.2-0.6-1.6c-0.4-0.4-0.9-0.6-1.5-0.5c-3,0.3-5.9,1.3-8.8,2.9C44.3,60.2,36.3,73.7,35.7,87.1
			z"/>
		<path class="st0" d="M115.5,235.6c0.2-0.1,0.4-0.3,0.6-0.6c7.4-9.9,6.1-21,4.5-28.6c-1.7-8.1-5.1-15.6-8.1-21.9
			c-1.7-3.6-4.5-5-7-3.7c-1.1,0.6-2.5,2-3.3,5.5c-0.2,0.9-0.4,1.9-0.6,2.8c-1.3,5.4-2.6,11-2.2,16.6c0.6,10,2.9,22.5,14.4,29.8
			C114.3,235.9,114.9,235.9,115.5,235.6z"/>
		<path class="st0" d="M81.5,207.6c0.3,0.5,0.8,0.8,1.3,0.9c0.4,0.1,0.8,0,1.1-0.2c0.1-0.1,0.2-0.1,0.3-0.2c0.6-0.5,1.3-1,2-1.5
			c1.7-1.2,3.5-2.5,4.7-4.6c6.9-12.2,8.8-26,5.5-40.8c-0.4-1.6-1.1-3-2.1-4.8c-0.5-0.9-1.1-2-1.8-3.3c-0.3-0.7-0.9-1.1-1.6-1.1
			c-0.3,0-0.6,0.1-0.9,0.2c-0.3,0.2-0.6,0.4-0.8,0.7l-5,8.5l-3.6,6c-0.1,0.1-0.3,0.3-0.4,0.5c-5.2,8.8-6.4,19-3.7,31.2
			c0.5,2.5,2,4.4,3.4,6.3C80.4,206.2,81,206.9,81.5,207.6z"/>
		<path class="st0" d="M149.5,251.4c2.4-1.3,3-4.7,3.3-7.6c1.1-10.8-1.6-21.2-8.5-32.7c-1.8-3.1-4.2-5.6-6.7-8.2
			c-1.1-1.2-2.3-2.4-3.5-3.8c-0.4-0.5-1-0.7-1.6-0.6c-0.2,0-0.4,0.1-0.6,0.2c-0.4,0.2-0.7,0.5-0.8,0.9c-3.9,8.1-4.5,19.2-1.7,29.9
			c2.6,9.6,7.7,17.4,13.6,20.8C144.9,251.5,147.4,252.6,149.5,251.4z"/>
		<path class="st0" d="M159,212.3c-0.4-0.1-0.9-0.1-1.3,0.1c-0.3,0.2-0.6,0.5-0.8,0.9c-3.2,6.5-3.2,15.3,0.2,24.8
			c4,11.3,11.7,20.7,18.7,22.9c2.1,0.6,3.6,0.6,4.9-0.1c2.5-1.4,2.8-4.8,2.9-6c1-9.8-2.7-18-5.6-23.3
			C173.8,223.8,168.4,215.1,159,212.3z"/>
		<path class="st0" d="M36.8,56.1c1.4-0.4,2.8-1,4.1-1.8c15.9-8.8,23.4-36.9,18.2-52.8c-0.4-1.1-1.4-1.7-2.4-1.3
			c-1,0.4-2.1,0.9-3.1,1.5c-15.3,8.5-23.4,30.6-19.2,52.8c0.1,0.6,0.4,1.1,0.9,1.4C35.7,56.1,36.3,56.2,36.8,56.1z"/>
		<path class="st0" d="M67.4,171c0.3-0.1,0.6-0.3,0.9-0.4c8.2-4.5,13.8-17.3,15.8-27.9c1.9-10,0.8-18.6-2.9-23.7
			c-0.5-0.7-1.4-1-2.2-0.6c-0.6,0.3-1.3,0.6-1.9,0.9c-5.8,3.2-9.8,8.3-11.9,15.2c-6.7,11.5-6.7,28.2,0.1,36
			C65.9,171.2,66.7,171.4,67.4,171z"/>
		<path class="st0" d="M54.1,135.1L54.1,135.1c12.1-6.7,21.4-30.8,17.9-46.2c-0.2-0.9-0.9-1.6-1.8-1.7c-2.3-0.1-4.7,0.5-7.1,1.8
			c-11,6.1-21.7,27.7-17.9,42.3c0.6,2.4,1.6,3.9,3,4.6C50.2,137,52.3,136.1,54.1,135.1z"/>
		<path class="st0" d="M133.9,252.4c0.3-0.6,0.4-1.3,0.2-1.9c-0.2-0.6-0.6-1.2-1.1-1.4c-12.5-5.6-25.7-5.5-36,0.2
			c-6.3,3.5-11.3,9-14.4,15.8c-0.2,0.6-0.3,1.2-0.1,1.8c0.2,0.6,0.6,1.1,1.1,1.3c11.3,5.7,24.5,5.5,35.3-0.5
			C125,264.2,130.3,258.9,133.9,252.4z"/>
	</g>
	<g>
		<path class="st0" d="M554,147.5c0.2-0.6,0.3-1.3,0.1-1.9c-0.2-0.5-0.5-0.9-1-1.2c-0.1,0-0.1-0.1-0.2-0.1c-7-2.8-13-4.1-19.4-1.6
			c-0.1,0-0.1,0-0.2,0.1l-9.6,4.8c-0.1,0-0.2,0.1-0.2,0.1c-1,0.7-2.1,1.4-3.1,2.1c-2.5,1.6-5,3.2-7.2,5.3c-2.3,2.2-4.3,4.8-6.3,7.3
			c-0.8,1.1-1.7,2.2-2.6,3.2c-0.4,0.5-0.6,1.2-0.5,1.9c0.1,0.7,0.4,1.3,0.9,1.6c0.5,0.4,1.1,0.7,1.6,1
			C521.5,178.6,545.5,167.1,554,147.5z"/>
		<path class="st0" d="M549.6,32.2c-16.9,11.6-22.4,31-16.3,57.6c0.1,0.6,0.5,1.2,1,1.4c0,0,0,0,0,0c0.5,0.3,1.1,0.3,1.6,0
			c7-3.6,13-11.6,16.4-22c4-12.2,4-25.6,0-36.1c-0.2-0.5-0.5-0.9-0.9-1.1c-0.1,0-0.2-0.1-0.2-0.1C550.7,31.8,550.1,31.8,549.6,32.2z
			"/>
		<path class="st0" d="M560,95.8c0.1-0.6,0-1.3-0.3-1.8c-0.2-0.3-0.4-0.5-0.7-0.7c-0.2-0.1-0.4-0.2-0.7-0.2
			c-18.2-1.5-34.7,15.9-38.5,40.5c-0.1,0.6,0,1.2,0.3,1.7c0.2,0.3,0.4,0.6,0.7,0.7c0.2,0.1,0.3,0.2,0.5,0.2
			C537.8,139.2,555.5,120.7,560,95.8z"/>
		<path class="st0" d="M537.1,186c0.3-0.6,0.3-1.3,0.1-1.9c-0.2-0.5-0.5-0.9-1-1.2c-0.1,0-0.1-0.1-0.2-0.1c-7.8-3-19.5-5.8-30.7,3.2
			c-7.4,3.8-12.4,10.5-17.6,18.2c-0.3,0.5-0.5,1.2-0.4,1.8c0.1,0.6,0.4,1.2,0.9,1.5c0.5,0.4,1.1,0.7,1.6,1
			C504.9,216.9,528.7,205.5,537.1,186z"/>
		<path class="st0" d="M362.4,273.6c3,10.4,10.1,19.3,19.6,24.6c8.3,4.6,17.6,6,26.4,4c0.5-0.1,1-0.5,1.2-1s0.4-1.1,0.3-1.7
			c-1.9-10.2-8.6-19.1-18.3-24.5c-8.4-4.6-18.2-6.2-27.7-4.4c-0.6,0.1-1,0.5-1.3,1.1C362.3,272.3,362.3,273,362.4,273.6z"/>
		<path class="st0" d="M398.6,267.7c3.8,9,10,16.1,18,20.6c9.2,5.1,19.9,6.1,30.2,2.8c0.5-0.2,1-0.6,1.2-1.2
			c0.2-0.6,0.3-1.2,0.1-1.8c-3-9-8.9-16.1-17-20.6c-9.2-5.1-20.3-6.1-31.3-2.9c-0.6,0.2-1,0.6-1.3,1.2
			C398.3,266.4,398.3,267.1,398.6,267.7z"/>
		<path class="st0" d="M464,241.9c14.5,8,34.1,3.8,45.5-9.7c0.4-0.5,0.6-1.1,0.5-1.8c-0.1-0.7-0.4-1.3-0.9-1.6
			c-2.8-2.1-5.5-4-8.3-5.6c-5.5-3-10.4-3.9-15.5-2.7l-4.6,0.7l-0.3,0.1c-8.8,0.5-16.5,4.5-23.4,12.2c-0.4,0.4-0.6,1.1-0.6,1.7
			c0,0.6,0.3,1.2,0.7,1.6C459.2,238.8,461.5,240.5,464,241.9z"/>
		<path class="st0" d="M505,54.2c-2.9-1.6-5.9-2.6-8.8-2.9c-0.5-0.1-1.1,0.1-1.5,0.5c-0.4,0.4-0.6,1-0.6,1.6c0,0.9-0.1,1.8-0.1,2.7
			c-0.1,2-0.3,4,0.1,6c2.3,14,8.3,25.2,17.8,33c0.4,0.3,0.8,0.6,1.2,0.8c1.5,0.9,3.2,1.2,4.9,1.5c0.9,0.2,1.7,0.3,2.5,0.6
			c0.5,0.1,1,0.1,1.5-0.2c0.4-0.3,0.8-0.8,0.9-1.4c0.2-0.9,0.4-1.7,0.7-2.6c0.6-2.2,1.2-4.4,1.1-6.8C523.8,73.7,515.8,60.2,505,54.2
			z"/>
		<path class="st0" d="M446.4,235.5c11.6-7.3,13.8-19.8,14.4-29.8c0.4-5.6-1-11.2-2.2-16.6c-0.2-0.9-0.4-1.9-0.6-2.8
			c-0.8-3.4-2.2-4.9-3.3-5.5c-2.4-1.4-5.2,0.1-7,3.7c-3.1,6.3-6.4,13.9-8.1,21.9c-1.6,7.5-2.9,18.7,4.5,28.6
			c0.2,0.2,0.4,0.4,0.6,0.6C445.2,235.9,445.8,235.9,446.4,235.5z"/>
		<path class="st0" d="M480.2,205.4c1.4-1.9,2.9-3.8,3.4-6.3c2.6-12.2,1.4-22.4-3.7-31.2c-0.1-0.2-0.2-0.3-0.4-0.5l-3.6-6l-5-8.5
			c-0.2-0.3-0.5-0.6-0.8-0.7c-0.3-0.2-0.6-0.2-0.9-0.2c-0.7,0-1.2,0.4-1.6,1.1c-0.7,1.3-1.3,2.4-1.8,3.3c-1,1.7-1.8,3.1-2.1,4.8
			c-3.2,14.9-1.4,28.6,5.5,40.8c1.2,2,2.9,3.3,4.7,4.6c0.7,0.5,1.4,1,2,1.5c0.1,0.1,0.2,0.2,0.3,0.2c0.3,0.2,0.7,0.3,1.1,0.2
			c0.5-0.1,1-0.4,1.3-0.9C479.1,206.9,479.6,206.2,480.2,205.4z"/>
		<path class="st0" d="M417.1,250.4c6-3.4,11-11.2,13.6-20.8c2.8-10.6,2.2-21.8-1.7-29.9c-0.2-0.4-0.5-0.7-0.8-0.9
			c-0.2-0.1-0.4-0.2-0.6-0.2c-0.6-0.1-1.2,0.1-1.6,0.6c-1.2,1.3-2.3,2.6-3.5,3.8c-2.5,2.6-4.9,5.1-6.7,8.2
			c-6.9,11.4-9.6,21.8-8.5,32.7c0.3,2.8,0.9,6.2,3.3,7.6C412.7,252.6,415.2,251.5,417.1,250.4z"/>
		<path class="st0" d="M382.1,231.7c-2.9,5.3-6.6,13.5-5.6,23.3c0.1,1.1,0.5,4.6,2.9,6c1.3,0.7,2.8,0.7,4.9,0.1
			c7-2.2,14.7-11.6,18.7-22.9c3.4-9.6,3.4-18.4,0.2-24.8c-0.2-0.4-0.5-0.7-0.8-0.9c-0.4-0.2-0.9-0.3-1.3-0.1
			C391.7,215.1,386.3,223.8,382.1,231.7z"/>
		<path class="st0" d="M524.8,55.8c0.4-0.3,0.8-0.8,0.9-1.4c4.2-22.1-3.9-44.3-19.2-52.8c-1-0.6-2-1.1-3.1-1.5
			c-1-0.4-2.1,0.2-2.4,1.3c-5.2,16,2.3,44.1,18.2,52.8c1.3,0.7,2.7,1.3,4.1,1.8C523.8,56.2,524.4,56.1,524.8,55.8z"/>
		<path class="st0" d="M494.8,170.6c6.8-7.8,6.9-24.6,0.1-36c-2.1-6.9-6.1-12-11.9-15.2c-0.6-0.3-1.2-0.7-1.9-0.9
			c-0.8-0.3-1.6-0.1-2.2,0.6c-3.7,5.1-4.7,13.7-2.9,23.7c2,10.6,7.6,23.4,15.8,27.9c0.3,0.2,0.6,0.3,0.9,0.4
			C493.4,171.4,494.2,171.2,494.8,170.6z"/>
		<path class="st0" d="M511.9,136c1.4-0.7,2.4-2.2,3-4.6c3.8-14.6-6.9-36.2-17.9-42.3c-2.4-1.3-4.8-2-7.1-1.8
			c-0.8,0-1.5,0.7-1.8,1.7c-3.5,15.4,5.8,39.5,17.8,46.1l0.1,0.1C507.8,136.1,509.9,137,511.9,136z"/>
		<path class="st0" d="M441.4,267.7c10.8,6,24,6.2,35.3,0.5c0.5-0.2,0.9-0.7,1.1-1.3c0.2-0.6,0.1-1.2-0.1-1.8
			c-3.1-6.8-8.1-12.3-14.4-15.8c-10.4-5.7-23.5-5.8-36-0.2c-0.5,0.2-1,0.8-1.1,1.4c-0.2,0.6-0.1,1.3,0.2,1.9
			C429.8,258.9,435.1,264.2,441.4,267.7z"/>
	</g>
	<path class="st0" d="M356.2,314c-20.6-5.1-41.2-10.3-61.8-15.4c-1.2-0.3-2.2-0.9-2.2-1.4c0-0.5,0.9-1.2,2.1-1.6c2-0.8,4-1.5,6-2.2
		c8.2-2.9,16.2-6.2,24.6-8.5c5.8-1.6,8.9-4,7.8-9c-0.2-1-1.5-1.5-2.6-1.1c-9.7,3.7-19.4,7.5-29.3,11c-6,2.2-11.9,5.9-19.1,2.2
		c-0.4-0.2-1-0.3-1.6-0.2c-0.6,0-1.2,0-1.6,0.2c-7.2,3.7-13.1-0.1-19.1-2.2c-9.8-3.5-19.5-7.3-29.3-11c-1.2-0.4-2.4,0-2.6,1.1
		c-1,5,2,7.4,7.8,9c8.4,2.4,16.4,5.6,24.6,8.5c2,0.7,4,1.5,6,2.2c1.2,0.4,2.1,1.2,2.1,1.6c0,0.5-1,1.1-2.2,1.4
		c-20.6,5.1-41.2,10.3-61.8,15.4c-7.2,1.8-13.1,7.3-14.8,13.9c-0.3,1,0.5,1.6,1.6,1.3c0.7-0.2,1.3-0.4,1.9-0.6
		c23.3-7.6,46.7-15.2,70-22.9c4.9-1.6,9.4-3.7,14.7-0.7c0.4,0.2,0.8,0.3,1.3,0.3c0.8,0,2,0,2.8,0c0.5,0,1-0.1,1.3-0.3
		c5.4-3,9.9-0.9,14.7,0.7c23.3,7.7,46.6,15.3,70,22.9c0.6,0.2,1.3,0.4,1.9,0.6c1.1,0.3,1.8-0.3,1.6-1.3
		C369.3,321.4,363.3,315.8,356.2,314z"/>
	<g>
		<path class="st0" d="M95.8,63.7l8.2-47.3h11.9c4.7,0,8.2,1.1,10.5,3.3c2.3,2.1,3.2,5.1,2.6,8.8c-0.5,2.8-1.6,5.1-3.3,7
			c-1.7,1.9-3.9,3.1-6.7,3.8c2.8,0.5,4.9,1.8,6.5,4c1.6,2.2,2.1,4.6,1.7,7.4c-0.6,4-2.5,7.1-5.5,9.5c-3.1,2.4-6.8,3.5-11.2,3.5H95.8
			z M101.6,40.3L97.8,62h12.6c4,0,7.3-1,10-3c2.7-2,4.4-4.7,5-8.2c0.6-3.1-0.2-5.6-2.2-7.5c-2-1.9-4.8-2.9-8.5-2.9H101.6z
			 M101.9,38.6h10.3c4.2,0,7.7-0.9,10.3-2.6s4.2-4.3,4.8-7.6c0.6-3.2-0.1-5.6-2-7.4s-4.9-2.7-9.1-2.8h-10.8L101.9,38.6z"/>
		<path class="st0" d="M163.9,40.2h-23L137.1,62h26.2l-0.3,1.8h-28l8.2-47.3h28l-0.3,1.8h-26.2l-3.5,20.3h23L163.9,40.2z"/>
		<path class="st0" d="M202,49c-0.4-2-1.6-3.6-3.4-4.9c-1.8-1.3-4.7-2.5-8.5-3.7c-3.9-1.2-6.7-2.3-8.5-3.5c-1.8-1.2-3.1-2.6-3.9-4.2
			c-0.7-1.6-0.9-3.4-0.6-5.4c0.4-2.3,1.4-4.3,3-6.1c1.6-1.7,3.7-3.1,6.2-4c2.5-1,5.2-1.4,8-1.4c2.8,0,5.3,0.6,7.4,1.8
			c2.2,1.2,3.7,2.9,4.7,5c1,2.1,1.3,4.5,1,7.2h-1.8c0.5-3.5-0.3-6.5-2.4-8.8c-2.1-2.3-5.1-3.5-8.9-3.5c-3.5,0-6.7,0.8-9.6,2.4
			c-2.9,1.6-4.7,3.7-5.5,6.4c-0.5,1.6-0.6,3-0.3,4.3c0.4,1.9,1.6,3.5,3.6,4.8c1.9,1.3,4.6,2.4,8,3.4c5.3,1.5,9,3.3,11.1,5.6
			c2.1,2.2,2.8,4.9,2.3,8.1c-0.4,2.4-1.4,4.5-3,6.3c-1.6,1.8-3.7,3.2-6.3,4.2c-2.6,1-5.3,1.5-8.2,1.5c-4.9,0-8.8-1.3-11.5-3.8
			c-2.7-2.6-3.8-5.9-3.2-10.2h1.8c-0.5,3.7,0.4,6.7,2.8,8.9c2.4,2.2,5.8,3.3,10.2,3.3c3.5,0,6.7-0.8,9.6-2.4
			c2.9-1.6,4.8-3.7,5.7-6.3C202.2,52.2,202.3,50.5,202,49z"/>
		<path class="st0" d="M249.2,18.1h-16.7l-7.9,45.6h-1.8l7.9-45.6H214l0.2-1.8h35.2L249.2,18.1z"/>
		<path class="st0" d="M279.3,64.4c-2.8,0-5.3-0.6-7.4-1.9c-2.1-1.3-3.8-3.1-5-5.6c-1.2-2.4-1.8-5.2-1.9-8.3c0-1.7,0.1-3.3,0.4-5
			l1.1-6.5c0.7-4.2,2.1-8,4.1-11.3c2-3.3,4.5-5.8,7.4-7.5c2.9-1.7,6-2.6,9.4-2.6c2.8,0,5.3,0.6,7.5,1.9c2.1,1.3,3.8,3.2,5,5.6
			c1.2,2.5,1.8,5.2,1.9,8.2c0,1.8-0.1,3.6-0.4,5.2l-1.1,6.5c-0.7,4-2,7.6-4,10.9c-2,3.3-4.4,5.8-7.3,7.6
			C285.9,63.5,282.7,64.4,279.3,64.4z M299.9,31.9c-0.1-4.5-1.2-8-3.4-10.6s-5.3-3.8-9.2-3.8c-4.8,0-8.9,1.8-12.4,5.4
			c-3.5,3.6-5.7,8.4-6.7,14.2l-1.1,6.6c-0.2,1.5-0.3,2.9-0.3,4.4c0,4.4,1.1,8,3.3,10.6c2.2,2.6,5.3,3.9,9.2,3.9c3,0,5.7-0.7,8.3-2.2
			c2.6-1.5,4.8-3.7,6.7-6.6c1.9-2.9,3.2-6.3,3.9-10l1.3-7.1C299.8,35.1,299.9,33.5,299.9,31.9z"/>
		<path class="st0" d="M336.7,40.4h-23.5l-4,23.3h-1.8l8.2-47.3H344l-0.2,1.8H317l-3.6,20.5h23.5L336.7,40.4z"/>
		<path class="st0" d="M365.6,43.7l-3.4,20h-1.8l8.2-47.3h14.2c4.4,0,7.8,1.3,10.1,3.8c2.3,2.5,3.2,5.8,2.5,10
			c-0.7,4.2-2.6,7.5-5.7,9.9c-3.1,2.4-7,3.6-11.9,3.6H365.6z M365.9,42h12c4.1,0,7.6-1,10.4-3.1c2.8-2.1,4.6-4.9,5.3-8.6
			c0.6-3.6,0-6.5-2-8.7s-4.9-3.3-8.9-3.4H370L365.9,42z"/>
		<path class="st0" d="M421.7,49.6h-22.4l-7.6,14.1h-2L415,16.4l2.1,0l9.1,47.3h-1.9L421.7,49.6z M400.2,47.8h21.2l-5.5-29.2
			L400.2,47.8z"/>
		<path class="st0" d="M451.1,38.2l18.2-21.7h2.2L452,39.7l12.8,24h-2.1L450.8,41l-19,22.8h-2.2l20.3-24.3l-12.3-23.1h2.1
			L451.1,38.2z"/>
		<path class="st0" d="M208.1,127.2l3.3-7.8L227.9,83h1.9l5.1,36.7l0.8,7.5l3.4-7.8L254.3,83h1.9l-19.7,47.3h-1.9l-5.3-39.6
			l-0.7-4.8l-2.4,5l-17.6,39.3h-2L201.6,83h1.9L208.1,127.2z"/>
		<path class="st0" d="M285.9,106.8h-23l-3.8,21.7h26.2l-0.3,1.8h-28l8.2-47.3h28l-0.3,1.8h-26.2l-3.5,20.3h23L285.9,106.8z"/>
		<path class="st0" d="M324,115.6c-0.4-2-1.6-3.6-3.4-4.9c-1.8-1.3-4.7-2.5-8.5-3.7c-3.9-1.2-6.7-2.3-8.5-3.5
			c-1.8-1.2-3.1-2.6-3.9-4.2c-0.7-1.6-0.9-3.4-0.6-5.4c0.4-2.3,1.4-4.3,3-6.1c1.6-1.7,3.7-3.1,6.2-4c2.5-1,5.2-1.4,8-1.4
			c2.8,0,5.3,0.6,7.4,1.8c2.2,1.2,3.7,2.9,4.7,5c1,2.1,1.3,4.5,1,7.2h-1.8c0.5-3.5-0.3-6.5-2.4-8.8c-2.1-2.3-5.1-3.5-8.9-3.5
			c-3.5,0-6.7,0.8-9.6,2.4c-2.9,1.6-4.7,3.7-5.5,6.4c-0.5,1.6-0.6,3-0.3,4.3c0.4,1.9,1.6,3.5,3.6,4.8c1.9,1.3,4.6,2.4,8,3.4
			c5.3,1.5,9,3.3,11.1,5.6c2.1,2.2,2.8,4.9,2.3,8.1c-0.4,2.4-1.4,4.5-3,6.3c-1.6,1.8-3.7,3.2-6.3,4.2s-5.3,1.5-8.2,1.5
			c-4.9,0-8.8-1.3-11.5-3.8c-2.7-2.6-3.8-5.9-3.2-10.2h1.8c-0.5,3.7,0.4,6.7,2.8,8.9c2.4,2.2,5.8,3.3,10.2,3.3
			c3.5,0,6.7-0.8,9.6-2.4c2.9-1.6,4.8-3.7,5.7-6.3C324.2,118.7,324.3,117.1,324,115.6z"/>
		<path class="st0" d="M371.2,84.7h-16.7l-7.9,45.6h-1.8l7.9-45.6H336l0.2-1.8h35.2L371.2,84.7z"/>
	</g>
	<g>
		<path class="st0" d="M155.6,187.8c-0.6,0.9-1.7,1.6-3.3,2.1c-1.6,0.6-3.3,0.8-5.1,0.8c-1.8,0-3.4-0.4-4.9-1.3
			c-1.4-0.9-2.5-2.1-3.3-3.8c-0.8-1.6-1.2-3.5-1.2-5.5V176c0-2,0.4-3.8,1.2-5.4c0.8-1.6,1.9-2.8,3.3-3.7c1.4-0.9,3-1.3,4.7-1.3
			c2.4,0,4.4,0.6,6,1.9c1.5,1.2,2.4,3,2.7,5.1h-0.9c-0.3-2-1.1-3.5-2.4-4.5c-1.3-1-3.1-1.6-5.3-1.6c-2.5,0-4.5,0.9-6,2.6
			c-1.5,1.8-2.3,4.1-2.3,7v3.9c0,1.9,0.4,3.6,1.1,5.1c0.7,1.5,1.7,2.7,3,3.5c1.3,0.8,2.8,1.2,4.5,1.2c1.6,0,3.2-0.2,4.6-0.7
			c1.4-0.5,2.4-1.1,2.9-1.8v-7.2h-7.5v-0.9h8.4V187.8z"/>
		<path class="st0" d="M174.9,183.1h-12l-2.7,7.3h-1l9.2-24.6h1.1l9.2,24.6h-1L174.9,183.1z M163.2,182.2h11.3l-5.7-15.2
			L163.2,182.2z"/>
		<path class="st0" d="M183.9,165.9l10.1,23.2l10.1-23.2h1.3v24.6h-0.9v-23.2l-10.2,23.2h-0.7l-10.1-23.1v23.1h-0.9v-24.6H183.9z"/>
		<path class="st0" d="M225.4,178.3h-12.3v11.3h14v0.9h-14.9v-24.6h14.9v0.9h-14v10.6h12.3V178.3z"/>
		<path class="st0" d="M246.6,184.6c0-1-0.2-1.9-0.7-2.7s-1.3-1.4-2.3-1.9c-1.1-0.6-2.6-1.1-4.8-1.7c-2.1-0.6-3.7-1.2-4.8-1.8
			c-1.1-0.6-1.8-1.3-2.3-2.1c-0.5-0.8-0.7-1.7-0.7-2.9c0-1.8,0.8-3.2,2.3-4.3c1.5-1.1,3.5-1.7,5.9-1.7c1.6,0,3,0.3,4.2,0.9
			c1.3,0.6,2.2,1.5,2.9,2.6s1,2.4,1,3.8h-0.9c0-1.8-0.7-3.3-2-4.5c-1.3-1.2-3.1-1.8-5.2-1.8c-2.2,0-3.9,0.5-5.2,1.4
			c-1.3,1-2,2.2-2,3.6c0,1.5,0.6,2.7,1.7,3.6c1.2,0.9,3.1,1.7,5.7,2.4c2.7,0.7,4.6,1.5,5.9,2.4c1.6,1.2,2.4,2.7,2.4,4.7
			c0,1.2-0.3,2.3-1,3.3c-0.7,1-1.7,1.7-3,2.2c-1.3,0.5-2.7,0.8-4.3,0.8c-1.8,0-3.4-0.3-4.8-0.9c-1.4-0.6-2.5-1.4-3.2-2.5
			c-0.7-1.1-1.1-2.4-1.1-3.9h0.9c0,2,0.8,3.6,2.3,4.7c1.5,1.1,3.5,1.7,5.9,1.7c2.1,0,3.9-0.5,5.3-1.5
			C245.9,187.4,246.6,186.2,246.6,184.6z"/>
		<path class="st0" d="M253.9,190.5H253v-24.6h0.9V190.5z"/>
		<path class="st0" d="M278.6,187.8c-0.6,0.9-1.7,1.6-3.3,2.1c-1.6,0.6-3.3,0.8-5.1,0.8c-1.8,0-3.4-0.4-4.9-1.3
			c-1.4-0.9-2.5-2.1-3.3-3.8c-0.8-1.6-1.2-3.5-1.2-5.5V176c0-2,0.4-3.8,1.2-5.4c0.8-1.6,1.9-2.8,3.3-3.7c1.4-0.9,3-1.3,4.7-1.3
			c2.4,0,4.4,0.6,6,1.9s2.4,3,2.7,5.1h-0.9c-0.3-2-1.1-3.5-2.4-4.5c-1.3-1-3.1-1.6-5.3-1.6c-2.5,0-4.5,0.9-6,2.6
			c-1.5,1.8-2.3,4.1-2.3,7v3.9c0,1.9,0.4,3.6,1.1,5.1c0.7,1.5,1.7,2.7,3,3.5c1.3,0.8,2.8,1.2,4.5,1.2c1.6,0,3.2-0.2,4.6-0.7
			c1.4-0.5,2.4-1.1,2.9-1.8v-7.2h-7.5v-0.9h8.4V187.8z"/>
		<path class="st0" d="M302.5,190.5h-0.9v-12.2h-15.7v12.2H285v-24.6h0.9v11.5h15.7v-11.5h0.9V190.5z"/>
		<path class="st0" d="M325.1,166.8h-8.9v23.6h-0.9v-23.6h-8.9v-0.9h18.8V166.8z"/>
		<path class="st0" d="M342.6,179.7h-7.9v-0.9h7.9V179.7z"/>
		<path class="st0" d="M369.4,190.5h-14.7v-0.9l8.4-9.7c1.4-1.6,2.4-3,3.1-4.3c0.7-1.2,1-2.4,1-3.4c0-1.8-0.5-3.2-1.6-4.2
			s-2.5-1.5-4.4-1.5c-1.1,0-2.2,0.3-3.1,0.8c-0.9,0.6-1.7,1.3-2.2,2.3c-0.5,1-0.8,2.1-0.8,3.2h-0.9c0-1.3,0.3-2.5,0.9-3.7
			c0.6-1.1,1.5-2,2.5-2.6c1.1-0.6,2.3-1,3.6-1c2.2,0,3.9,0.6,5.1,1.7c1.2,1.2,1.8,2.8,1.8,4.9c0,1.9-1.1,4.2-3.2,6.9l-1.5,1.9
			l-7.4,8.7h13.5V190.5z"/>
		<path class="st0" d="M387.8,180.4c0,3.3-0.6,5.8-1.9,7.6s-3.1,2.7-5.4,2.7c-2.3,0-4.1-0.9-5.4-2.7c-1.3-1.8-2-4.4-2-7.7v-4.5
			c0-3.3,0.6-5.8,1.9-7.6c1.3-1.8,3.1-2.7,5.4-2.7c2.3,0,4.1,0.9,5.4,2.7c1.3,1.8,1.9,4.4,1.9,7.7V180.4z M386.9,175.9
			c0-3-0.6-5.3-1.7-7s-2.7-2.5-4.8-2.5c-2.1,0-3.7,0.8-4.8,2.5c-1.1,1.7-1.7,4-1.7,7v4.4c0,3,0.6,5.3,1.7,7c1.1,1.7,2.7,2.5,4.8,2.5
			c2,0,3.6-0.8,4.7-2.5c1.1-1.7,1.7-4,1.7-7V175.9z"/>
		<path class="st0" d="M401.1,190.5h-0.9v-23.4l-7,2.6v-1l7.8-2.9h0.2V190.5z"/>
		<path class="st0" d="M425.8,166.5l-10.8,24h-0.9l10.7-23.6h-14.6v-0.9h15.7V166.5z"/>
	</g>
</g>
</svg>
