<?xml version="1.0" encoding="utf-8"?>
<!-- Generator: Adobe Illustrator 22.1.0, SVG Export Plug-In . SVG Version: 6.00 Build 0)  -->
<svg version="1.1" id="Layer_1" xmlns="http://www.w3.org/2000/svg" xmlns:xlink="http://www.w3.org/1999/xlink" x="0px" y="0px"
	 viewBox="0 0 560.1 354.3" style="enable-background:new 0 0 560.1 354.3;" xml:space="preserve">
<style type="text/css">
	.st0{fill:#FFFFFF;}
</style>
<g>
	<g>
		<path class="st0" d="M53.5,192.9c0.6-0.3,1.1-0.6,1.6-1c0.5-0.3,0.9-0.9,0.9-1.6c0.1-0.7-0.1-1.4-0.5-1.9
			c-0.9-1.1-1.7-2.2-2.6-3.2c-1.9-2.5-3.9-5.1-6.3-7.3c-2.3-2.1-4.8-3.8-7.2-5.3c-1-0.7-2.1-1.4-3.1-2.1c-0.1-0.1-0.2-0.1-0.2-0.1
			l-9.6-4.8c-0.1,0-0.1,0-0.2-0.1C19.9,163,14,164.3,7,167.1c-0.1,0-0.1,0.1-0.2,0.1c-0.4,0.2-0.8,0.7-1,1.2
			c-0.2,0.6-0.2,1.3,0.1,1.9C14.3,189.8,38.4,201.3,53.5,192.9z"/>
		<path class="st0" d="M8.7,54.6c-0.1,0-0.2,0.1-0.2,0.1C8,55,7.7,55.3,7.5,55.8c-4,10.4-4.1,23.9,0,36.1c3.4,10.4,9.4,18.4,16.4,22
			c0.5,0.3,1.1,0.2,1.6,0c0,0,0,0,0,0c0.5-0.3,0.9-0.8,1-1.4c6.1-26.6,0.6-46-16.3-57.6C9.7,54.5,9.2,54.4,8.7,54.6z"/>
		<path class="st0" d="M38.4,158.9c0.2,0,0.4-0.1,0.5-0.2c0.3-0.2,0.5-0.4,0.7-0.7c0.3-0.5,0.4-1.1,0.3-1.7
			c-3.7-24.6-20.3-42.1-38.5-40.5c-0.2,0-0.5,0.1-0.7,0.2c-0.3,0.2-0.5,0.4-0.7,0.7c-0.3,0.5-0.5,1.2-0.3,1.8
			C4.3,143.4,22,161.9,38.4,158.9z"/>
		<path class="st0" d="M70,231.3c0.6-0.3,1.1-0.6,1.6-1c0.5-0.3,0.8-0.9,0.9-1.5c0.1-0.6,0-1.3-0.4-1.8
			c-5.3-7.7-10.3-14.3-17.6-18.2c-11.2-9.1-22.9-6.2-30.7-3.2c-0.1,0-0.2,0.1-0.2,0.1c-0.4,0.2-0.8,0.6-1,1.2
			c-0.2,0.6-0.2,1.3,0.1,1.9C31.1,228.2,55,239.6,70,231.3z"/>
		<path class="st0" d="M197.2,294.4c-0.3-0.6-0.8-0.9-1.3-1.1c-9.5-1.8-19.3-0.2-27.7,4.4c-9.7,5.4-16.4,14.3-18.3,24.5
			c-0.1,0.6,0,1.2,0.3,1.7c0.3,0.5,0.7,0.9,1.2,1c8.8,2,18.1,0.5,26.4-4c9.5-5.2,16.6-14.2,19.6-24.6
			C197.6,295.6,197.5,295,197.2,294.4z"/>
		<path class="st0" d="M161.3,288.4c-0.2-0.6-0.7-1.1-1.3-1.2c-11-3.2-22.1-2.1-31.3,2.9c-8.1,4.5-14,11.6-17,20.6
			c-0.2,0.6-0.2,1.3,0.1,1.8c0.2,0.6,0.7,1,1.2,1.2c10.3,3.3,21,2.3,30.2-2.8c8-4.4,14.2-11.5,18-20.6
			C161.5,289.8,161.5,289.1,161.3,288.4z"/>
		<path class="st0" d="M102.6,259.5c0.4-0.4,0.7-1,0.7-1.6c0-0.6-0.2-1.2-0.6-1.7c-7-7.8-14.6-11.7-23.4-12.2l-0.3-0.1l-4.6-0.7
			c-5.1-1.2-10-0.3-15.5,2.7c-2.8,1.5-5.5,3.5-8.3,5.6c-0.5,0.4-0.8,1-0.9,1.6c-0.1,0.7,0.1,1.3,0.5,1.8c11.4,13.6,31,17.7,45.5,9.7
			C98.4,263.2,100.6,261.5,102.6,259.5z"/>
		<path class="st0" d="M35.4,109.7c-0.1,2.4,0.5,4.6,1.1,6.8c0.2,0.9,0.5,1.8,0.7,2.6c0.1,0.6,0.4,1.1,0.9,1.4
			c0.4,0.3,1,0.4,1.5,0.2c0.8-0.2,1.6-0.4,2.5-0.6c1.7-0.3,3.4-0.7,4.9-1.5c0.4-0.2,0.9-0.5,1.2-0.8c9.5-7.9,15.5-19,17.8-33
			c0.3-2,0.2-4,0.1-6c-0.1-0.9-0.1-1.8-0.1-2.7c0-0.6-0.2-1.2-0.6-1.6c-0.4-0.4-0.9-0.6-1.5-0.5c-3,0.3-5.9,1.3-8.8,2.9
			C44.1,82.9,36.1,96.4,35.4,109.7z"/>
		<path class="st0" d="M115.2,258.2c0.2-0.1,0.4-0.3,0.6-0.6c7.4-9.9,6.1-21,4.5-28.6c-1.7-8.1-5.1-15.6-8.1-21.9
			c-1.7-3.6-4.5-5-7-3.7c-1.1,0.6-2.5,2-3.3,5.5c-0.2,0.9-0.4,1.9-0.6,2.8c-1.3,5.4-2.6,11-2.2,16.6c0.6,10,2.9,22.5,14.4,29.8
			C114,258.5,114.7,258.5,115.2,258.2z"/>
		<path class="st0" d="M81.2,230.3c0.3,0.5,0.8,0.8,1.3,0.9c0.4,0.1,0.8,0,1.1-0.2c0.1-0.1,0.2-0.1,0.3-0.2c0.6-0.5,1.3-1,2-1.5
			c1.7-1.2,3.5-2.5,4.7-4.6c6.9-12.2,8.8-26,5.5-40.8c-0.4-1.6-1.1-3-2.1-4.8c-0.5-0.9-1.1-2-1.8-3.3c-0.3-0.7-0.9-1.1-1.6-1.1
			c-0.3,0-0.6,0.1-0.9,0.2c-0.3,0.2-0.6,0.4-0.8,0.7l-5,8.5l-3.6,6c-0.1,0.1-0.3,0.3-0.4,0.5c-5.2,8.8-6.4,19-3.7,31.2
			c0.5,2.5,2,4.4,3.4,6.3C80.2,228.9,80.7,229.6,81.2,230.3z"/>
		<path class="st0" d="M149.3,274.1c2.4-1.3,3-4.7,3.3-7.6c1.1-10.8-1.6-21.2-8.5-32.7c-1.8-3.1-4.2-5.6-6.7-8.2
			c-1.1-1.2-2.3-2.4-3.5-3.8c-0.4-0.5-1-0.7-1.6-0.6c-0.2,0-0.4,0.1-0.6,0.2c-0.4,0.2-0.7,0.5-0.8,0.9c-3.9,8.1-4.5,19.2-1.7,29.9
			c2.6,9.6,7.7,17.4,13.6,20.8C144.7,274.2,147.1,275.3,149.3,274.1z"/>
		<path class="st0" d="M158.8,235c-0.4-0.1-0.9-0.1-1.3,0.1c-0.3,0.2-0.6,0.5-0.8,0.9c-3.2,6.5-3.2,15.3,0.2,24.8
			c4,11.3,11.7,20.7,18.7,22.9c2.1,0.6,3.6,0.6,4.9-0.1c2.5-1.4,2.8-4.8,2.9-6c1-9.8-2.7-18-5.6-23.3
			C173.5,246.4,168.2,237.8,158.8,235z"/>
		<path class="st0" d="M36.5,78.7c1.4-0.4,2.8-1,4.1-1.8c15.9-8.8,23.4-36.9,18.2-52.8c-0.4-1.1-1.4-1.7-2.4-1.3
			c-1,0.4-2.1,0.9-3.1,1.5C38,32.7,30,54.9,34.2,77c0.1,0.6,0.4,1.1,0.9,1.4C35.5,78.8,36,78.9,36.5,78.7z"/>
		<path class="st0" d="M67.2,193.7c0.3-0.1,0.6-0.3,0.9-0.4c8.2-4.5,13.8-17.3,15.8-27.9c1.9-10,0.8-18.6-2.9-23.7
			c-0.5-0.7-1.4-1-2.2-0.6c-0.6,0.3-1.3,0.6-1.9,0.9c-5.8,3.2-9.8,8.3-11.9,15.2c-6.7,11.5-6.7,28.2,0.1,36
			C65.6,193.9,66.4,194,67.2,193.7z"/>
		<path class="st0" d="M53.9,157.8L53.9,157.8c12.1-6.7,21.4-30.8,17.9-46.2c-0.2-0.9-0.9-1.6-1.8-1.7c-2.3-0.1-4.7,0.5-7.1,1.8
			c-11,6.1-21.7,27.7-17.9,42.3c0.6,2.4,1.6,3.9,3,4.6C49.9,159.7,52.1,158.8,53.9,157.8z"/>
		<path class="st0" d="M133.6,275.1c0.3-0.6,0.4-1.3,0.2-1.9c-0.2-0.6-0.6-1.2-1.1-1.4c-12.5-5.6-25.7-5.5-36,0.2
			c-6.3,3.5-11.3,9-14.4,15.8c-0.2,0.6-0.3,1.2-0.1,1.8c0.2,0.6,0.6,1.1,1.1,1.3c11.3,5.7,24.5,5.5,35.3-0.5
			C124.8,286.9,130,281.6,133.6,275.1z"/>
	</g>
	<g>
		<path class="st0" d="M553.7,170.2c0.2-0.6,0.3-1.3,0.1-1.9c-0.2-0.5-0.5-0.9-1-1.2c-0.1,0-0.1-0.1-0.2-0.1c-7-2.8-13-4.1-19.4-1.6
			c-0.1,0-0.1,0-0.2,0.1l-9.6,4.8c-0.1,0-0.2,0.1-0.2,0.1c-1,0.7-2.1,1.4-3.1,2.1c-2.5,1.6-5,3.2-7.2,5.3c-2.3,2.2-4.3,4.8-6.3,7.3
			c-0.8,1.1-1.7,2.2-2.6,3.2c-0.4,0.5-0.6,1.2-0.5,1.9c0.1,0.7,0.4,1.3,0.9,1.6c0.5,0.4,1.1,0.7,1.6,1
			C521.2,201.3,545.3,189.8,553.7,170.2z"/>
		<path class="st0" d="M549.4,54.8c-16.9,11.6-22.4,31-16.3,57.6c0.1,0.6,0.5,1.2,1,1.4c0,0,0,0,0,0c0.5,0.3,1.1,0.3,1.6,0
			c7-3.6,13-11.6,16.4-22c4-12.2,4-25.6,0-36.1c-0.2-0.5-0.5-0.9-0.9-1.1c-0.1,0-0.2-0.1-0.2-0.1C550.4,54.4,549.9,54.5,549.4,54.8z
			"/>
		<path class="st0" d="M559.8,118.5c0.1-0.6,0-1.3-0.3-1.8c-0.2-0.3-0.4-0.5-0.7-0.7c-0.2-0.1-0.4-0.2-0.7-0.2
			c-18.2-1.5-34.7,15.9-38.5,40.5c-0.1,0.6,0,1.2,0.3,1.7c0.2,0.3,0.4,0.6,0.7,0.7c0.2,0.1,0.3,0.2,0.5,0.2
			C537.6,161.9,555.3,143.4,559.8,118.5z"/>
		<path class="st0" d="M536.9,208.6c0.3-0.6,0.3-1.3,0.1-1.9c-0.2-0.5-0.5-0.9-1-1.2c-0.1,0-0.1-0.1-0.2-0.1
			c-7.8-3-19.5-5.8-30.7,3.2c-7.4,3.8-12.4,10.5-17.6,18.2c-0.3,0.5-0.5,1.2-0.4,1.8c0.1,0.6,0.4,1.2,0.9,1.5c0.5,0.4,1.1,0.7,1.6,1
			C504.6,239.6,528.5,228.2,536.9,208.6z"/>
		<path class="st0" d="M362.2,296.3c3,10.4,10.1,19.3,19.6,24.6c8.3,4.6,17.6,6,26.4,4c0.5-0.1,1-0.5,1.2-1c0.3-0.5,0.4-1.1,0.3-1.7
			c-1.9-10.2-8.6-19.1-18.3-24.5c-8.4-4.6-18.2-6.2-27.7-4.4c-0.6,0.1-1,0.5-1.3,1.1C362.1,295,362,295.6,362.2,296.3z"/>
		<path class="st0" d="M398.3,290.4c3.8,9,10,16.1,18,20.6c9.2,5.1,19.9,6.1,30.2,2.8c0.5-0.2,1-0.6,1.2-1.2
			c0.2-0.6,0.3-1.2,0.1-1.8c-3-9-8.9-16.1-17-20.6c-9.2-5.1-20.3-6.1-31.3-2.9c-0.6,0.2-1,0.6-1.3,1.2
			C398.1,289.1,398.1,289.8,398.3,290.4z"/>
		<path class="st0" d="M463.7,264.6c14.5,8,34.1,3.8,45.5-9.7c0.4-0.5,0.6-1.1,0.5-1.8c-0.1-0.7-0.4-1.3-0.9-1.6
			c-2.8-2.1-5.5-4-8.3-5.6c-5.5-3-10.4-3.9-15.5-2.7l-4.6,0.7l-0.3,0.1c-8.8,0.5-16.5,4.5-23.4,12.2c-0.4,0.4-0.6,1.1-0.6,1.7
			c0,0.6,0.3,1.2,0.7,1.6C459,261.5,461.2,263.2,463.7,264.6z"/>
		<path class="st0" d="M504.7,76.9c-2.9-1.6-5.9-2.6-8.8-2.9c-0.5-0.1-1.1,0.1-1.5,0.5s-0.6,1-0.6,1.6c0,0.9-0.1,1.8-0.1,2.7
			c-0.1,2-0.3,4,0.1,6c2.3,14,8.3,25.2,17.8,33c0.4,0.3,0.8,0.6,1.2,0.8c1.5,0.9,3.2,1.2,4.9,1.5c0.9,0.2,1.7,0.3,2.5,0.6
			c0.5,0.1,1,0.1,1.5-0.2c0.4-0.3,0.8-0.8,0.9-1.4c0.2-0.9,0.4-1.7,0.7-2.6c0.6-2.2,1.2-4.4,1.1-6.8
			C523.5,96.4,515.5,82.9,504.7,76.9z"/>
		<path class="st0" d="M446.1,258.2c11.6-7.3,13.8-19.8,14.4-29.8c0.4-5.6-1-11.2-2.2-16.6c-0.2-0.9-0.4-1.9-0.6-2.8
			c-0.8-3.4-2.2-4.9-3.3-5.5c-2.4-1.4-5.2,0.1-7,3.7c-3.1,6.3-6.4,13.9-8.1,21.9c-1.6,7.5-2.9,18.7,4.5,28.6
			c0.2,0.2,0.4,0.4,0.6,0.6C444.9,258.5,445.6,258.5,446.1,258.2z"/>
		<path class="st0" d="M480,228.1c1.4-1.9,2.9-3.8,3.4-6.3c2.6-12.2,1.4-22.4-3.7-31.2c-0.1-0.2-0.2-0.3-0.4-0.5l-3.6-6l-5-8.5
			c-0.2-0.3-0.5-0.6-0.8-0.7c-0.3-0.2-0.6-0.2-0.9-0.2c-0.7,0-1.2,0.4-1.6,1.1c-0.7,1.3-1.3,2.4-1.8,3.3c-1,1.7-1.8,3.1-2.1,4.8
			c-3.2,14.9-1.4,28.6,5.5,40.8c1.2,2,2.9,3.3,4.7,4.6c0.7,0.5,1.4,1,2,1.5c0.1,0.1,0.2,0.2,0.3,0.2c0.3,0.2,0.7,0.3,1.1,0.2
			c0.5-0.1,1-0.4,1.3-0.9C478.9,229.6,479.4,228.9,480,228.1z"/>
		<path class="st0" d="M416.8,273.1c6-3.4,11-11.2,13.6-20.8c2.8-10.6,2.2-21.8-1.7-29.9c-0.2-0.4-0.5-0.7-0.8-0.9
			c-0.2-0.1-0.4-0.2-0.6-0.2c-0.6-0.1-1.2,0.1-1.6,0.6c-1.2,1.3-2.3,2.6-3.5,3.8c-2.5,2.6-4.9,5.1-6.7,8.2
			c-6.9,11.4-9.6,21.8-8.5,32.7c0.3,2.8,0.9,6.2,3.3,7.6C412.5,275.3,414.9,274.2,416.8,273.1z"/>
		<path class="st0" d="M381.8,254.3c-2.9,5.3-6.6,13.5-5.6,23.3c0.1,1.1,0.5,4.6,2.9,6c1.3,0.7,2.8,0.7,4.9,0.1
			c7-2.2,14.7-11.6,18.7-22.9c3.4-9.6,3.4-18.4,0.2-24.8c-0.2-0.4-0.5-0.7-0.8-0.9c-0.4-0.2-0.9-0.3-1.3-0.1
			C391.4,237.8,386.1,246.4,381.8,254.3z"/>
		<path class="st0" d="M524.6,78.5c0.4-0.3,0.8-0.8,0.9-1.4c4.2-22.1-3.9-44.3-19.2-52.8c-1-0.6-2-1.1-3.1-1.5
			c-1-0.4-2.1,0.2-2.4,1.3c-5.2,16,2.3,44.1,18.2,52.8c1.3,0.7,2.7,1.3,4.1,1.8C523.6,78.9,524.1,78.8,524.6,78.5z"/>
		<path class="st0" d="M494.5,193.2c6.8-7.8,6.9-24.6,0.1-36c-2.1-6.9-6.1-12-11.9-15.2c-0.6-0.3-1.2-0.7-1.9-0.9
			c-0.8-0.3-1.6-0.1-2.2,0.6c-3.7,5.1-4.7,13.7-2.9,23.7c2,10.6,7.6,23.4,15.8,27.9c0.3,0.2,0.6,0.3,0.9,0.4
			C493.2,194,494,193.9,494.5,193.2z"/>
		<path class="st0" d="M511.6,158.6c1.4-0.7,2.4-2.2,3-4.6c3.8-14.6-6.9-36.2-17.9-42.3c-2.4-1.3-4.8-2-7.1-1.8
			c-0.8,0-1.5,0.7-1.8,1.7c-3.5,15.4,5.8,39.5,17.8,46.1l0.1,0.1C507.5,158.8,509.7,159.7,511.6,158.6z"/>
		<path class="st0" d="M441.1,290.4c10.8,6,24,6.2,35.3,0.5c0.5-0.2,0.9-0.7,1.1-1.3c0.2-0.6,0.1-1.2-0.1-1.8
			c-3.1-6.8-8.1-12.3-14.4-15.8c-10.4-5.7-23.5-5.8-36-0.2c-0.5,0.2-1,0.8-1.1,1.4c-0.2,0.6-0.1,1.3,0.2,1.9
			C429.6,281.6,434.8,286.9,441.1,290.4z"/>
	</g>
	<path class="st0" d="M355.9,336.7c-20.6-5.1-41.2-10.3-61.8-15.4c-1.2-0.3-2.2-0.9-2.2-1.4c0-0.5,0.9-1.2,2.1-1.6
		c2-0.8,4-1.5,6-2.2c8.2-2.9,16.2-6.2,24.6-8.5c5.8-1.6,8.9-4,7.8-9c-0.2-1-1.5-1.5-2.6-1.1c-9.7,3.7-19.4,7.5-29.3,11
		c-6,2.2-11.9,5.9-19.1,2.2c-0.4-0.2-1-0.3-1.6-0.2c-0.6,0-1.2,0-1.6,0.2c-7.2,3.7-13.1-0.1-19.1-2.2c-9.8-3.5-19.5-7.3-29.3-11
		c-1.2-0.4-2.4,0-2.6,1.1c-1,5,2,7.4,7.8,9c8.4,2.4,16.4,5.6,24.6,8.5c2,0.7,4,1.5,6,2.2c1.2,0.4,2.1,1.2,2.1,1.6
		c0,0.5-1,1.1-2.2,1.4c-20.6,5.1-41.2,10.3-61.8,15.4c-7.2,1.8-13.1,7.3-14.8,13.9c-0.3,1,0.5,1.6,1.6,1.3c0.7-0.2,1.3-0.4,1.9-0.6
		c23.3-7.6,46.7-15.2,70-22.9c4.9-1.6,9.4-3.7,14.7-0.7c0.4,0.2,0.8,0.3,1.3,0.3c0.8,0,2,0,2.8,0c0.5,0,1-0.1,1.3-0.3
		c5.4-3,9.9-0.9,14.7,0.7c23.3,7.7,46.6,15.3,70,22.9c0.6,0.2,1.3,0.4,1.9,0.6c1.1,0.3,1.8-0.3,1.6-1.3
		C369,344,363.1,338.5,355.9,336.7z"/>
	<g>
		<path class="st0" d="M217.1,43.4l7.2-41.3h10.4c4.1,0,7.1,1,9.2,2.9c2,1.9,2.8,4.4,2.3,7.7c-0.4,2.4-1.4,4.4-2.9,6.1
			c-1.5,1.6-3.4,2.7-5.8,3.3c2.4,0.4,4.3,1.6,5.7,3.5c1.4,1.9,1.9,4.1,1.5,6.5c-0.5,3.5-2.2,6.2-4.8,8.3c-2.7,2.1-5.9,3.1-9.8,3.1
			H217.1z M222.2,23l-3.3,18.9h11c3.5,0,6.4-0.9,8.7-2.6c2.4-1.8,3.8-4.1,4.4-7.1c0.5-2.7-0.1-4.9-1.9-6.6c-1.7-1.7-4.2-2.5-7.4-2.5
			H222.2z M222.4,21.5h9c3.7,0,6.7-0.8,8.9-2.3c2.3-1.5,3.7-3.7,4.2-6.6c0.5-2.8-0.1-4.9-1.7-6.5c-1.7-1.5-4.3-2.4-7.9-2.5h-9.4
			L222.4,21.5z"/>
		<path class="st0" d="M276.6,22.9h-20.1l-3.3,18.9H276l-0.2,1.5h-24.4l7.2-41.3h24.4l-0.2,1.5h-22.9l-3.1,17.8h20L276.6,22.9z"/>
		<path class="st0" d="M309.8,30.6c-0.4-1.7-1.4-3.2-3-4.3c-1.6-1.1-4.1-2.2-7.5-3.2c-3.4-1-5.9-2-7.5-3.1c-1.6-1-2.7-2.2-3.4-3.6
			c-0.7-1.4-0.8-3-0.5-4.7c0.3-2,1.2-3.8,2.6-5.3c1.4-1.5,3.2-2.7,5.4-3.5c2.2-0.8,4.5-1.2,7-1.2c2.4,0,4.6,0.5,6.5,1.6
			c1.9,1.1,3.3,2.5,4.1,4.4c0.9,1.9,1.1,3.9,0.8,6.2h-1.5c0.5-3.1-0.2-5.6-2.1-7.6s-4.5-3-7.8-3c-3.1,0-5.9,0.7-8.4,2.1
			s-4.1,3.2-4.8,5.5c-0.4,1.4-0.5,2.6-0.2,3.7c0.4,1.7,1.4,3.1,3.1,4.2c1.7,1.1,4,2.1,7,2.9c4.6,1.3,7.8,2.9,9.6,4.8
			c1.8,1.9,2.5,4.3,2,7.1c-0.3,2.1-1.2,3.9-2.6,5.5c-1.4,1.6-3.3,2.8-5.5,3.7c-2.2,0.9-4.6,1.3-7.1,1.3c-4.3,0-7.7-1.1-10-3.3
			c-2.4-2.2-3.3-5.2-2.8-8.9h1.5c-0.5,3.3,0.3,5.8,2.4,7.8c2.1,1.9,5,2.9,8.9,2.9c3.1,0,5.9-0.7,8.4-2.1c2.5-1.4,4.2-3.2,5-5.5
			C309.9,33.3,310.1,31.9,309.8,30.6z"/>
		<path class="st0" d="M351,3.6h-14.6l-6.9,39.8H328l6.9-39.8h-14.5l0.2-1.5h30.7L351,3.6z"/>
		<path class="st0" d="M95.5,92.5l-3,17.4H91l7.1-41.3h12.4c3.8,0,6.8,1.1,8.8,3.3c2,2.2,2.8,5.1,2.2,8.7c-0.6,3.6-2.3,6.5-4.9,8.6
			c-2.7,2.1-6.1,3.2-10.4,3.2H95.5z M95.8,91h10.5c3.6,0,6.6-0.9,9.1-2.7c2.5-1.8,4-4.3,4.6-7.5c0.6-3.2,0-5.7-1.7-7.6
			c-1.7-1.9-4.3-2.9-7.7-3H99.4L95.8,91z"/>
		<path class="st0" d="M143.4,92.3h-13.9l-3.1,17.7H125l7.1-41.3h12.6c2.5,0,4.7,0.5,6.5,1.5c1.9,1,3.2,2.4,4,4.2
			c0.8,1.8,1.1,3.8,0.7,6.2c-0.5,2.8-1.7,5.2-3.7,7.3c-2,2.1-4.4,3.4-7.2,4l7.6,17.6l-0.1,0.4H151L143.4,92.3z M129.8,90.8h12.1
			c3.1,0,5.8-1,8.2-2.9c2.3-1.9,3.8-4.3,4.4-7.3c0.6-3.1-0.1-5.6-2-7.5c-1.9-1.9-4.6-2.9-8.2-2.9h-10.9L129.8,90.8z"/>
		<path class="st0" d="M175.6,110.5c-2.5,0-4.6-0.6-6.5-1.7c-1.9-1.1-3.3-2.7-4.3-4.9c-1-2.1-1.6-4.5-1.6-7.2c0-1.5,0.1-2.9,0.3-4.4
			l1-5.7c0.6-3.7,1.8-7,3.6-9.8c1.8-2.9,3.9-5.1,6.4-6.6c2.5-1.5,5.3-2.2,8.2-2.2c2.5,0,4.6,0.6,6.5,1.7c1.9,1.1,3.3,2.8,4.3,4.9
			c1,2.1,1.6,4.5,1.6,7.1c0,1.6-0.1,3.1-0.3,4.6l-1,5.7c-0.6,3.5-1.7,6.6-3.5,9.5c-1.7,2.9-3.9,5.1-6.4,6.6
			C181.3,109.8,178.6,110.5,175.6,110.5z M193.6,82.2c-0.1-3.9-1-7-3-9.2c-1.9-2.2-4.6-3.3-8-3.3c-4.2,0-7.8,1.6-10.8,4.7
			c-3,3.2-5,7.3-5.9,12.4l-1,5.8c-0.2,1.3-0.3,2.5-0.3,3.8c0,3.9,1,6.9,2.9,9.2c1.9,2.3,4.6,3.4,8,3.4c2.6,0,5-0.6,7.3-1.9
			c2.3-1.3,4.2-3.2,5.8-5.8c1.6-2.6,2.8-5.5,3.4-8.8l1.1-6.2C193.5,85,193.6,83.6,193.6,82.2z"/>
		<path class="st0" d="M209.3,68.7l9.7,39l23.3-39h2.3l-7.1,41.3h-1.5l6.7-38.8L219.3,110h-1.2l-9.8-38.8l-6.7,38.8H200l7.1-41.3
			H209.3z"/>
		<path class="st0" d="M261.9,110.5c-2.5,0-4.6-0.6-6.5-1.7c-1.9-1.1-3.3-2.7-4.3-4.9c-1-2.1-1.6-4.5-1.6-7.2c0-1.5,0.1-2.9,0.3-4.4
			l1-5.7c0.6-3.7,1.8-7,3.6-9.8c1.8-2.9,3.9-5.1,6.4-6.6c2.5-1.5,5.3-2.2,8.2-2.2c2.5,0,4.6,0.6,6.5,1.7c1.9,1.1,3.3,2.8,4.3,4.9
			c1,2.1,1.6,4.5,1.6,7.1c0,1.6-0.1,3.1-0.3,4.6l-1,5.7c-0.6,3.5-1.7,6.6-3.5,9.5c-1.7,2.9-3.9,5.1-6.4,6.6
			C267.7,109.8,265,110.5,261.9,110.5z M280,82.2c-0.1-3.9-1-7-3-9.2c-1.9-2.2-4.6-3.3-8-3.3c-4.2,0-7.8,1.6-10.8,4.7
			c-3,3.2-5,7.3-5.9,12.4l-1,5.8c-0.2,1.3-0.3,2.5-0.3,3.8c0,3.9,1,6.9,2.9,9.2c1.9,2.3,4.6,3.4,8,3.4c2.6,0,5-0.6,7.3-1.9
			c2.3-1.3,4.2-3.2,5.8-5.8c1.6-2.6,2.8-5.5,3.4-8.8l1.1-6.2C279.8,85,280,83.6,280,82.2z"/>
		<path class="st0" d="M319.3,70.2h-14.6l-6.9,39.8h-1.5l6.9-39.8h-14.5l0.2-1.5h30.7L319.3,70.2z"/>
		<path class="st0" d="M322.2,110h-1.5l7.1-41.3h1.5L322.2,110z"/>
		<path class="st0" d="M347.9,110.5c-2.5,0-4.6-0.6-6.5-1.7c-1.9-1.1-3.3-2.7-4.3-4.9c-1-2.1-1.6-4.5-1.6-7.2c0-1.5,0.1-2.9,0.3-4.4
			l1-5.7c0.6-3.7,1.8-7,3.6-9.8c1.8-2.9,3.9-5.1,6.4-6.6c2.5-1.5,5.3-2.2,8.2-2.2c2.5,0,4.6,0.6,6.5,1.7c1.9,1.1,3.3,2.8,4.3,4.9
			c1,2.1,1.6,4.5,1.6,7.1c0,1.6-0.1,3.1-0.3,4.6l-1,5.7c-0.6,3.5-1.7,6.6-3.5,9.5c-1.7,2.9-3.9,5.1-6.4,6.6
			C353.7,109.8,350.9,110.5,347.9,110.5z M365.9,82.2c-0.1-3.9-1-7-3-9.2c-1.9-2.2-4.6-3.3-8-3.3c-4.2,0-7.8,1.6-10.8,4.7
			c-3,3.2-5,7.3-5.9,12.4l-1,5.8c-0.2,1.3-0.3,2.5-0.3,3.8c0,3.9,1,6.9,2.9,9.2c1.9,2.3,4.6,3.4,8,3.4c2.6,0,5-0.6,7.3-1.9
			c2.3-1.3,4.2-3.2,5.8-5.8c1.6-2.6,2.8-5.5,3.4-8.8l1.1-6.2C365.8,85,365.9,83.6,365.9,82.2z"/>
		<path class="st0" d="M401.3,110h-1.5l-19.2-38.7l-6.7,38.7h-1.6l7.1-41.3h1.5l19.2,38.7l6.7-38.7h1.5L401.3,110z"/>
		<path class="st0" d="M436.3,97.6h-19.6l-6.6,12.3h-1.7l22.1-41.3l1.8,0l7.9,41.3h-1.6L436.3,97.6z M417.6,96.1H436l-4.8-25.5
			L417.6,96.1z"/>
		<path class="st0" d="M448.8,108.4h20.5l-0.2,1.5h-22.1l7.1-41.3h1.6L448.8,108.4z"/>
		<path class="st0" d="M207.8,136.8h-14.6l-6.9,39.8h-1.5l6.9-39.8h-14.5l0.2-1.5H208L207.8,136.8z"/>
		<path class="st0" d="M226.5,158.9h-13.9l-3.1,17.7h-1.5l7.1-41.3h12.6c2.5,0,4.7,0.5,6.5,1.5c1.9,1,3.2,2.4,4,4.2
			c0.8,1.8,1.1,3.8,0.7,6.2c-0.5,2.8-1.7,5.2-3.7,7.3s-4.4,3.4-7.2,4l7.6,17.6l-0.1,0.4h-1.6L226.5,158.9z M212.9,157.3H225
			c3.1,0,5.8-1,8.2-2.9c2.3-1.9,3.8-4.3,4.4-7.3c0.6-3.1-0.1-5.6-2-7.5c-1.9-1.9-4.6-2.9-8.2-2.9h-10.9L212.9,157.3z"/>
		<path class="st0" d="M268.6,164.2H249l-6.6,12.3h-1.7l22.1-41.3l1.8,0l7.9,41.3H271L268.6,164.2z M249.8,162.7h18.5l-4.8-25.5
			L249.8,162.7z"/>
		<path class="st0" d="M281.9,176.5h-1.5l7.1-41.3h1.5L281.9,176.5z"/>
		<path class="st0" d="M296,175h20.5l-0.2,1.5h-22.1l7.1-41.3h1.6L296,175z"/>
		<path class="st0" d="M348.7,156.1h-20.1l-3.3,18.9h22.9l-0.2,1.5h-24.4l7.2-41.3h24.4l-0.2,1.5H332l-3.1,17.8h20.1L348.7,156.1z"
			/>
		<path class="st0" d="M374.3,158.9h-13.9l-3.1,17.7h-1.5l7.1-41.3h12.6c2.5,0,4.7,0.5,6.5,1.5c1.9,1,3.2,2.4,4,4.2
			c0.8,1.8,1.1,3.8,0.7,6.2c-0.5,2.8-1.7,5.2-3.7,7.3c-2,2.1-4.4,3.4-7.2,4l7.6,17.6l-0.1,0.4h-1.6L374.3,158.9z M360.6,157.3h12.1
			c3.1,0,5.8-1,8.2-2.9c2.3-1.9,3.8-4.3,4.4-7.3c0.6-3.1-0.1-5.6-2-7.5c-1.9-1.9-4.6-2.9-8.2-2.9h-10.9L360.6,157.3z"/>
	</g>
	<g>
		<path class="st0" d="M180.1,208.6v8.3h-0.7v-19.7h6.2c2,0,3.6,0.5,4.7,1.5c1.1,1,1.7,2.4,1.7,4.2c0,1.8-0.5,3.2-1.6,4.2
			c-1.1,1-2.6,1.5-4.6,1.5H180.1z M180.1,207.8h5.4c1.8,0,3.2-0.4,4.2-1.3c1-0.9,1.5-2.1,1.5-3.6c0-1.6-0.5-2.8-1.5-3.7
			c-1-0.9-2.4-1.3-4.2-1.3h-5.4V207.8z"/>
		<path class="st0" d="M203.5,208.5h-6.8v8.4h-0.7v-19.7h6.3c2,0,3.6,0.5,4.7,1.5c1.2,1,1.8,2.4,1.8,4.2c0,1.3-0.4,2.5-1.3,3.5
			c-0.8,1-1.9,1.6-3.2,1.9l5.3,8.4v0.2h-0.8L203.5,208.5z M196.7,207.7h6.2c1.5,0,2.7-0.5,3.7-1.4c0.9-0.9,1.4-2.1,1.4-3.5
			c0-1.5-0.5-2.7-1.6-3.6c-1-0.9-2.5-1.3-4.3-1.3h-5.5V207.7z"/>
		<path class="st0" d="M228.2,208.5c0,1.7-0.3,3.2-0.9,4.5c-0.6,1.3-1.5,2.3-2.6,3.1c-1.1,0.7-2.4,1.1-3.9,1.1c-2.2,0-4-0.8-5.4-2.4
			c-1.4-1.6-2.1-3.7-2.1-6.4v-2.8c0-1.7,0.3-3.2,0.9-4.5c0.6-1.3,1.5-2.3,2.6-3.1c1.1-0.7,2.4-1.1,3.9-1.1c1.5,0,2.8,0.4,3.9,1.1
			c1.1,0.7,2,1.7,2.6,3.1c0.6,1.3,0.9,2.8,0.9,4.5V208.5z M227.4,205.5c0-2.4-0.6-4.3-1.8-5.7c-1.2-1.4-2.8-2.2-4.9-2.2
			c-2,0-3.7,0.7-4.9,2.1c-1.2,1.4-1.8,3.4-1.8,5.9v2.9c0,1.6,0.3,3,0.8,4.2s1.3,2.1,2.3,2.8c1,0.7,2.2,1,3.6,1
			c2.1,0,3.7-0.7,4.9-2.2s1.8-3.4,1.8-5.9V205.5z"/>
		<path class="st0" d="M233.7,197.2l8.1,18.7l8.2-18.7h1.1v19.7h-0.7v-18.7l-8.2,18.7h-0.6l-8.2-18.6v18.6h-0.7v-19.7H233.7z"/>
		<path class="st0" d="M267.1,211h-9.7l-2.2,5.9h-0.8l7.4-19.7h0.9l7.4,19.7h-0.8L267.1,211z M257.7,210.3h9.1l-4.6-12.2
			L257.7,210.3z"/>
		<path class="st0" d="M278.9,206.3l6.4-9.1h0.9l-6.8,9.7l7.1,10.1h-0.9l-6.6-9.5l-6.7,9.5h-0.9l7.1-10.1l-6.8-9.7h0.9L278.9,206.3z
			"/>
		<path class="st0" d="M310.5,214.8c-0.5,0.7-1.4,1.3-2.6,1.7c-1.2,0.5-2.6,0.7-4.1,0.7c-1.5,0-2.8-0.4-3.9-1.1
			c-1.1-0.7-2-1.7-2.7-3c-0.6-1.3-1-2.8-1-4.4v-3.4c0-1.6,0.3-3.1,0.9-4.4c0.6-1.3,1.5-2.3,2.6-3c1.1-0.7,2.4-1.1,3.8-1.1
			c2,0,3.6,0.5,4.8,1.5c1.2,1,2,2.4,2.1,4.1h-0.7c-0.2-1.6-0.9-2.8-2-3.6c-1.1-0.8-2.5-1.3-4.2-1.3c-2,0-3.6,0.7-4.8,2.1
			c-1.2,1.4-1.8,3.3-1.8,5.6v3.1c0,1.5,0.3,2.9,0.9,4.1c0.6,1.2,1.4,2.1,2.4,2.8c1,0.7,2.2,1,3.6,1c1.3,0,2.5-0.2,3.7-0.6
			c1.1-0.4,1.9-0.9,2.3-1.4v-5.8h-6V208h6.8V214.8z"/>
		<path class="st0" d="M326,211h-9.7l-2.2,5.9h-0.8l7.4-19.7h0.9l7.4,19.7h-0.8L326,211z M316.6,210.3h9.1l-4.6-12.2L316.6,210.3z"
			/>
		<path class="st0" d="M333.3,197.2l8.1,18.7l8.2-18.7h1.1v19.7h-0.7v-18.7l-8.2,18.7h-0.6l-8.2-18.6v18.6h-0.7v-19.7H333.3z"/>
		<path class="st0" d="M366.7,207.1h-9.9v9.1h11.3v0.7h-12v-19.7h12v0.7h-11.3v8.5h9.9V207.1z"/>
		<path class="st0" d="M383.7,212.2c0-0.8-0.2-1.6-0.6-2.1c-0.4-0.6-1-1.1-1.9-1.5c-0.8-0.4-2.1-0.9-3.8-1.4c-1.7-0.5-3-0.9-3.8-1.4
			c-0.9-0.5-1.5-1-1.9-1.7c-0.4-0.6-0.6-1.4-0.6-2.3c0-1.4,0.6-2.6,1.8-3.5c1.2-0.9,2.8-1.3,4.7-1.3c1.3,0,2.4,0.2,3.4,0.7
			c1,0.5,1.8,1.2,2.3,2.1c0.6,0.9,0.8,1.9,0.8,3h-0.7c0-1.5-0.5-2.7-1.6-3.7c-1.1-1-2.5-1.4-4.2-1.4c-1.7,0-3.1,0.4-4.2,1.2
			c-1.1,0.8-1.6,1.7-1.6,2.9c0,1.2,0.5,2.1,1.4,2.9c0.9,0.7,2.5,1.4,4.6,1.9c2.1,0.6,3.7,1.2,4.7,1.9c1.3,0.9,1.9,2.2,1.9,3.7
			c0,1-0.3,1.9-0.8,2.6c-0.6,0.8-1.4,1.4-2.4,1.8c-1,0.4-2.2,0.6-3.5,0.6c-1.4,0-2.7-0.2-3.9-0.7c-1.1-0.5-2-1.2-2.6-2
			c-0.6-0.9-0.9-1.9-0.9-3.1h0.7c0,1.6,0.6,2.9,1.8,3.8c1.2,0.9,2.8,1.3,4.7,1.3c1.7,0,3.2-0.4,4.3-1.2
			C383.1,214.5,383.7,213.4,383.7,212.2z"/>
		<path class="st0" d="M205.7,241.3H196l-2.2,5.9H193l7.4-19.7h0.9l7.4,19.7h-0.8L205.7,241.3z M196.3,240.6h9.1l-4.6-12.2
			L196.3,240.6z"/>
		<path class="st0" d="M214.8,246l0.9-3.3l4.7-15.3h0.8l4.6,15.3l0.9,3.3l0.9-3.3l4.1-15.3h0.8l-5.3,19.7h-0.8l-4.9-16.5l-0.7-2.1
			l-0.7,2.1l-4.9,16.5h-0.8l-5.3-19.7h0.8l4.1,15.3L214.8,246z"/>
		<path class="st0" d="M245.9,241.3h-9.7l-2.2,5.9h-0.8l7.4-19.7h0.9l7.4,19.7h-0.8L245.9,241.3z M236.5,240.6h9.1l-4.6-12.2
			L236.5,240.6z"/>
		<path class="st0" d="M259.6,238.8h-6.8v8.4H252v-19.7h6.3c2,0,3.6,0.5,4.7,1.5c1.2,1,1.8,2.4,1.8,4.2c0,1.3-0.4,2.5-1.3,3.5
			c-0.8,1-1.9,1.6-3.2,1.9l5.3,8.4v0.2h-0.8L259.6,238.8z M252.8,238h6.2c1.5,0,2.7-0.5,3.7-1.4c0.9-0.9,1.4-2.1,1.4-3.5
			c0-1.5-0.5-2.7-1.6-3.6c-1-0.9-2.5-1.3-4.3-1.3h-5.5V238z"/>
		<path class="st0" d="M270.3,247.2v-19.7h5.5c1.5,0,2.9,0.4,4.2,1.1c1.2,0.7,2.2,1.7,2.9,3c0.7,1.3,1.1,2.8,1.1,4.4v2.6
			c0,1.6-0.3,3.1-1,4.4c-0.7,1.3-1.7,2.4-2.9,3.1c-1.2,0.7-2.6,1.1-4.2,1.1H270.3z M271,228.2v18.3h4.7c1.4,0,2.6-0.3,3.8-1
			c1.1-0.7,2-1.6,2.7-2.8c0.6-1.2,1-2.5,1-4v-2.5c0-1.5-0.3-2.8-0.9-4c-0.6-1.2-1.5-2.1-2.6-2.8c-1.1-0.7-2.4-1-3.7-1.1H271z"/>
		<path class="st0" d="M300.3,242.5c0-0.8-0.2-1.6-0.6-2.1c-0.4-0.6-1-1.1-1.9-1.5c-0.8-0.4-2.1-0.9-3.8-1.4c-1.7-0.5-3-0.9-3.8-1.4
			c-0.9-0.5-1.5-1-1.9-1.7c-0.4-0.6-0.6-1.4-0.6-2.3c0-1.4,0.6-2.6,1.8-3.5c1.2-0.9,2.8-1.3,4.7-1.3c1.3,0,2.4,0.2,3.4,0.7
			c1,0.5,1.8,1.2,2.3,2.1c0.6,0.9,0.8,1.9,0.8,3h-0.7c0-1.5-0.5-2.7-1.6-3.7c-1.1-1-2.5-1.4-4.2-1.4c-1.7,0-3.1,0.4-4.2,1.2
			c-1.1,0.8-1.6,1.7-1.6,2.9c0,1.2,0.5,2.1,1.4,2.9c0.9,0.7,2.5,1.4,4.6,1.9c2.1,0.6,3.7,1.2,4.7,1.9c1.3,0.9,1.9,2.2,1.9,3.7
			c0,1-0.3,1.9-0.8,2.6s-1.4,1.4-2.4,1.8c-1,0.4-2.2,0.6-3.5,0.6c-1.4,0-2.7-0.2-3.9-0.7c-1.1-0.5-2-1.2-2.6-2
			c-0.6-0.9-0.9-1.9-0.9-3.1h0.7c0,1.6,0.6,2.9,1.8,3.8c1.2,0.9,2.8,1.3,4.7,1.3c1.7,0,3.2-0.4,4.3-1.2
			C299.7,244.8,300.3,243.7,300.3,242.5z"/>
		<path class="st0" d="M322.7,247.2h-11.8v-0.7l6.7-7.8c1.1-1.3,1.9-2.4,2.5-3.4c0.5-1,0.8-1.9,0.8-2.8c0-1.4-0.4-2.6-1.3-3.4
			c-0.8-0.8-2-1.2-3.6-1.2c-0.9,0-1.8,0.2-2.5,0.7c-0.8,0.4-1.4,1.1-1.8,1.8c-0.4,0.8-0.6,1.7-0.6,2.6h-0.7c0-1.1,0.2-2,0.7-2.9
			s1.2-1.6,2-2.1s1.8-0.8,2.9-0.8c1.8,0,3.1,0.5,4.1,1.4c1,0.9,1.5,2.2,1.5,3.9c0,1.5-0.9,3.4-2.6,5.5l-1.2,1.5l-6,7h10.9V247.2z"/>
		<path class="st0" d="M337.5,239.2c0,2.6-0.5,4.7-1.5,6.2c-1,1.5-2.5,2.2-4.3,2.2c-1.9,0-3.3-0.7-4.4-2.2s-1.6-3.5-1.6-6.2v-3.6
			c0-2.6,0.5-4.7,1.6-6.1c1-1.5,2.5-2.2,4.3-2.2c1.9,0,3.3,0.7,4.4,2.2c1,1.5,1.6,3.5,1.6,6.2V239.2z M336.8,235.5
			c0-2.4-0.5-4.3-1.3-5.6c-0.9-1.3-2.2-2-3.8-2c-1.7,0-2.9,0.7-3.8,2c-0.9,1.3-1.3,3.2-1.3,5.7v3.5c0,2.4,0.5,4.3,1.4,5.6
			c0.9,1.3,2.2,2,3.8,2c1.6,0,2.9-0.7,3.8-2c0.9-1.3,1.3-3.2,1.3-5.7V235.5z"/>
		<path class="st0" d="M348.1,247.2h-0.7v-18.8l-5.7,2.1v-0.8l6.3-2.3h0.1V247.2z"/>
		<path class="st0" d="M367.8,232.5c0,1.1-0.3,2.1-1,2.9c-0.7,0.8-1.6,1.4-2.7,1.7c1.3,0.3,2.3,1,3.1,1.9c0.8,0.9,1.2,1.9,1.2,3.1
			c0,1.7-0.6,3-1.7,4c-1.1,1-2.7,1.5-4.6,1.5c-1.9,0-3.5-0.5-4.6-1.5c-1.1-1-1.7-2.3-1.7-4c0-1.2,0.4-2.2,1.1-3.1
			c0.7-0.9,1.8-1.5,3.1-1.9c-1.1-0.3-2-0.9-2.6-1.7c-0.7-0.8-1-1.8-1-2.9c0-1.6,0.5-2.9,1.6-3.9c1-0.9,2.4-1.4,4.1-1.4
			c1.7,0,3.1,0.5,4.2,1.5C367.3,229.6,367.8,230.9,367.8,232.5z M367.6,242.1c0-1.4-0.5-2.5-1.6-3.4c-1-0.9-2.4-1.3-4-1.3
			c-1.6,0-3,0.4-4,1.3c-1,0.9-1.5,2-1.5,3.4c0,1.4,0.5,2.5,1.5,3.4s2.4,1.3,4.1,1.3c1.7,0,3-0.4,4-1.3
			C367.1,244.6,367.6,243.5,367.6,242.1z M367.1,232.4c0-1.3-0.5-2.4-1.5-3.2c-1-0.9-2.2-1.3-3.6-1.3c-1.5,0-2.6,0.4-3.6,1.2
			c-0.9,0.8-1.4,1.9-1.4,3.3c0,1.3,0.5,2.3,1.4,3.1c0.9,0.8,2.1,1.2,3.6,1.2c1.5,0,2.7-0.4,3.6-1.2
			C366.6,234.7,367.1,233.7,367.1,232.4z"/>
	</g>
</g>
</svg>
