<?xml version="1.0" encoding="utf-8"?>
<!-- Generator: Adobe Illustrator 22.1.0, SVG Export Plug-In . SVG Version: 6.00 Build 0)  -->
<svg version="1.1" id="Layer_1" xmlns="http://www.w3.org/2000/svg" xmlns:xlink="http://www.w3.org/1999/xlink" x="0px" y="0px"
	 viewBox="0 0 560.1 360.3" style="enable-background:new 0 0 560.1 360.3;" xml:space="preserve">
<style type="text/css">
	.st0{fill:#FFFFFF;}
</style>
<g>
	<g>
		<path class="st0" d="M53.8,201.2c0.6-0.3,1.1-0.6,1.6-1c0.5-0.3,0.9-0.9,0.9-1.6c0.1-0.7-0.1-1.4-0.5-1.9
			c-0.9-1.1-1.7-2.2-2.6-3.2c-1.9-2.5-3.9-5.1-6.3-7.3c-2.3-2.1-4.8-3.8-7.2-5.3c-1-0.7-2.1-1.4-3.1-2.1c-0.1-0.1-0.2-0.1-0.2-0.1
			l-9.6-4.8c-0.1,0-0.1,0-0.2-0.1c-6.5-2.5-12.5-1.1-19.4,1.6c-0.1,0-0.1,0.1-0.2,0.1c-0.4,0.2-0.8,0.7-1,1.2
			c-0.2,0.6-0.2,1.3,0.1,1.9C14.6,198.1,38.6,209.5,53.8,201.2z"/>
		<path class="st0" d="M8.9,62.9c-0.1,0-0.2,0.1-0.2,0.1c-0.4,0.2-0.7,0.6-0.9,1.1c-4,10.4-4.1,23.9,0,36.1
			c3.4,10.4,9.4,18.4,16.4,22c0.5,0.3,1.1,0.2,1.6,0c0,0,0,0,0,0c0.5-0.3,0.9-0.8,1-1.4c6.1-26.6,0.6-46-16.3-57.6
			C10,62.8,9.4,62.7,8.9,62.9z"/>
		<path class="st0" d="M38.7,167.2c0.2,0,0.4-0.1,0.5-0.2c0.3-0.2,0.5-0.4,0.7-0.7c0.3-0.5,0.4-1.1,0.3-1.7
			C36.5,140,20,122.6,1.8,124.1c-0.2,0-0.5,0.1-0.7,0.2c-0.3,0.2-0.5,0.4-0.7,0.7c-0.3,0.5-0.5,1.2-0.3,1.8
			C4.6,151.7,22.3,170.2,38.7,167.2z"/>
		<path class="st0" d="M70.2,239.6c0.6-0.3,1.1-0.6,1.6-1c0.5-0.3,0.8-0.9,0.9-1.5c0.1-0.6,0-1.3-0.4-1.8
			c-5.3-7.7-10.3-14.3-17.6-18.2c-11.2-9.1-22.9-6.2-30.7-3.2c-0.1,0-0.2,0.1-0.2,0.1c-0.4,0.2-0.8,0.6-1,1.2
			c-0.2,0.6-0.2,1.3,0.1,1.9C31.4,236.5,55.2,247.9,70.2,239.6z"/>
		<path class="st0" d="M197.5,302.7c-0.3-0.6-0.8-0.9-1.3-1.1c-9.5-1.8-19.3-0.2-27.7,4.4c-9.7,5.4-16.4,14.3-18.3,24.5
			c-0.1,0.6,0,1.2,0.3,1.7c0.3,0.5,0.7,0.9,1.2,1c8.8,2,18.1,0.5,26.4-4c9.5-5.2,16.6-14.2,19.6-24.6
			C197.8,303.9,197.8,303.3,197.5,302.7z"/>
		<path class="st0" d="M161.5,296.7c-0.2-0.6-0.7-1.1-1.3-1.2c-11-3.2-22.1-2.1-31.3,2.9c-8.1,4.5-14,11.6-17,20.6
			c-0.2,0.6-0.2,1.3,0.1,1.8c0.2,0.6,0.7,1,1.2,1.2c10.3,3.3,21,2.3,30.2-2.8c8-4.4,14.2-11.5,18-20.6
			C161.8,298.1,161.8,297.3,161.5,296.7z"/>
		<path class="st0" d="M102.9,267.8c0.4-0.4,0.7-1,0.7-1.6c0-0.6-0.2-1.2-0.6-1.7c-7-7.8-14.6-11.7-23.4-12.2l-0.3-0.1l-4.6-0.7
			c-5.1-1.2-10-0.3-15.5,2.7c-2.8,1.5-5.5,3.5-8.3,5.6c-0.5,0.4-0.8,1-0.9,1.6c-0.1,0.7,0.1,1.3,0.5,1.8c11.4,13.6,31,17.7,45.5,9.7
			C98.6,271.5,100.9,269.8,102.9,267.8z"/>
		<path class="st0" d="M35.7,118c-0.1,2.4,0.5,4.6,1.1,6.8c0.2,0.9,0.5,1.8,0.7,2.6c0.1,0.6,0.4,1.1,0.9,1.4c0.4,0.3,1,0.4,1.5,0.2
			c0.8-0.2,1.6-0.4,2.5-0.6c1.7-0.3,3.4-0.7,4.9-1.5c0.4-0.2,0.9-0.5,1.2-0.8c9.5-7.9,15.5-19,17.8-33c0.3-2,0.2-4,0.1-6
			c-0.1-0.9-0.1-1.8-0.1-2.7c0-0.6-0.2-1.2-0.6-1.6c-0.4-0.4-0.9-0.6-1.5-0.5c-3,0.3-5.9,1.3-8.8,2.9C44.3,91.2,36.3,104.7,35.7,118
			z"/>
		<path class="st0" d="M115.5,266.5c0.2-0.1,0.4-0.3,0.6-0.6c7.4-9.9,6.1-21,4.5-28.6c-1.7-8.1-5.1-15.6-8.1-21.9
			c-1.7-3.6-4.5-5-7-3.7c-1.1,0.6-2.5,2-3.3,5.5c-0.2,0.9-0.4,1.9-0.6,2.8c-1.3,5.4-2.6,11-2.2,16.6c0.6,10,2.9,22.5,14.4,29.8
			C114.3,266.8,114.9,266.8,115.5,266.5z"/>
		<path class="st0" d="M81.5,238.6c0.3,0.5,0.8,0.8,1.3,0.9c0.4,0.1,0.8,0,1.1-0.2c0.1-0.1,0.2-0.1,0.3-0.2c0.6-0.5,1.3-1,2-1.5
			c1.7-1.2,3.5-2.5,4.7-4.6c6.9-12.2,8.8-26,5.5-40.8c-0.4-1.6-1.1-3-2.1-4.8c-0.5-0.9-1.1-2-1.8-3.3c-0.3-0.7-0.9-1.1-1.6-1.1
			c-0.3,0-0.6,0.1-0.9,0.2c-0.3,0.2-0.6,0.4-0.8,0.7l-5,8.5l-3.6,6c-0.1,0.1-0.3,0.3-0.4,0.5c-5.2,8.8-6.4,19-3.7,31.2
			c0.5,2.5,2,4.4,3.4,6.3C80.4,237.2,81,237.9,81.5,238.6z"/>
		<path class="st0" d="M149.5,282.4c2.4-1.3,3-4.7,3.3-7.6c1.1-10.8-1.6-21.2-8.5-32.7c-1.8-3.1-4.2-5.6-6.7-8.2
			c-1.1-1.2-2.3-2.4-3.5-3.8c-0.4-0.5-1-0.7-1.6-0.6c-0.2,0-0.4,0.1-0.6,0.2c-0.4,0.2-0.7,0.5-0.8,0.9c-3.9,8.1-4.5,19.2-1.7,29.9
			c2.6,9.6,7.7,17.4,13.6,20.8C144.9,282.5,147.4,283.5,149.5,282.4z"/>
		<path class="st0" d="M159,243.2c-0.4-0.1-0.9-0.1-1.3,0.1c-0.3,0.2-0.6,0.5-0.8,0.9c-3.2,6.5-3.2,15.3,0.2,24.8
			c4,11.3,11.7,20.7,18.7,22.9c2.1,0.6,3.6,0.6,4.9-0.1c2.5-1.4,2.8-4.8,2.9-6c1-9.8-2.7-18-5.6-23.3
			C173.8,254.7,168.4,246.1,159,243.2z"/>
		<path class="st0" d="M36.8,87c1.4-0.4,2.8-1,4.1-1.8c15.9-8.8,23.4-36.9,18.2-52.8c-0.4-1.1-1.4-1.7-2.4-1.3
			c-1,0.4-2.1,0.9-3.1,1.5C38.3,41,30.2,63.2,34.4,85.3c0.1,0.6,0.4,1.1,0.9,1.4C35.7,87.1,36.3,87.2,36.8,87z"/>
		<path class="st0" d="M67.4,202c0.3-0.1,0.6-0.3,0.9-0.4c8.2-4.5,13.8-17.3,15.8-27.9c1.9-10,0.8-18.6-2.9-23.7
			c-0.5-0.7-1.4-1-2.2-0.6c-0.6,0.3-1.3,0.6-1.9,0.9c-5.8,3.2-9.8,8.3-11.9,15.2c-6.7,11.5-6.7,28.2,0.1,36
			C65.9,202.2,66.7,202.3,67.4,202z"/>
		<path class="st0" d="M54.1,166.1L54.1,166.1c12.1-6.7,21.4-30.8,17.9-46.2c-0.2-0.9-0.9-1.6-1.8-1.7c-2.3-0.1-4.7,0.5-7.1,1.8
			c-11,6.1-21.7,27.7-17.9,42.3c0.6,2.4,1.6,3.9,3,4.6C50.2,167.9,52.3,167.1,54.1,166.1z"/>
		<path class="st0" d="M133.9,283.3c0.3-0.6,0.4-1.3,0.2-1.9c-0.2-0.6-0.6-1.2-1.1-1.4c-12.5-5.6-25.7-5.5-36,0.2
			c-6.3,3.5-11.3,9-14.4,15.8c-0.2,0.6-0.3,1.2-0.1,1.8c0.2,0.6,0.6,1.1,1.1,1.3c11.3,5.7,24.5,5.5,35.3-0.5
			C125,295.2,130.3,289.9,133.9,283.3z"/>
	</g>
	<g>
		<path class="st0" d="M554,178.5c0.2-0.6,0.3-1.3,0.1-1.9c-0.2-0.5-0.5-0.9-1-1.2c-0.1,0-0.1-0.1-0.2-0.1c-7-2.8-13-4.1-19.4-1.6
			c-0.1,0-0.1,0-0.2,0.1l-9.6,4.8c-0.1,0-0.2,0.1-0.2,0.1c-1,0.7-2.1,1.4-3.1,2.1c-2.5,1.6-5,3.2-7.2,5.3c-2.3,2.2-4.3,4.8-6.3,7.3
			c-0.8,1.1-1.7,2.2-2.6,3.2c-0.4,0.5-0.6,1.2-0.5,1.9c0.1,0.7,0.4,1.3,0.9,1.6c0.5,0.4,1.1,0.7,1.6,1
			C521.5,209.5,545.5,198.1,554,178.5z"/>
		<path class="st0" d="M549.6,63.1c-16.9,11.6-22.4,31-16.3,57.6c0.1,0.6,0.5,1.2,1,1.4c0,0,0,0,0,0c0.5,0.3,1.1,0.3,1.6,0
			c7-3.6,13-11.6,16.4-22c4-12.2,4-25.6,0-36.1c-0.2-0.5-0.5-0.9-0.9-1.1c-0.1,0-0.2-0.1-0.2-0.1C550.7,62.7,550.1,62.8,549.6,63.1z
			"/>
		<path class="st0" d="M560,126.8c0.1-0.6,0-1.3-0.3-1.8c-0.2-0.3-0.4-0.5-0.7-0.7c-0.2-0.1-0.4-0.2-0.7-0.2
			c-18.2-1.5-34.7,15.9-38.5,40.5c-0.1,0.6,0,1.2,0.3,1.7c0.2,0.3,0.4,0.6,0.7,0.7c0.2,0.1,0.3,0.2,0.5,0.2
			C537.8,170.2,555.5,151.7,560,126.8z"/>
		<path class="st0" d="M537.1,216.9c0.3-0.6,0.3-1.3,0.1-1.9c-0.2-0.5-0.5-0.9-1-1.2c-0.1,0-0.1-0.1-0.2-0.1
			c-7.8-3-19.5-5.8-30.7,3.2c-7.4,3.8-12.4,10.5-17.6,18.2c-0.3,0.5-0.5,1.2-0.4,1.8c0.1,0.6,0.4,1.2,0.9,1.5c0.5,0.4,1.1,0.7,1.6,1
			C504.9,247.9,528.7,236.5,537.1,216.9z"/>
		<path class="st0" d="M362.4,304.6c3,10.4,10.1,19.3,19.6,24.6c8.3,4.6,17.6,6,26.4,4c0.5-0.1,1-0.5,1.2-1s0.4-1.1,0.3-1.7
			c-1.9-10.2-8.6-19.1-18.3-24.5c-8.4-4.6-18.2-6.2-27.7-4.4c-0.6,0.1-1,0.5-1.3,1.1C362.3,303.3,362.3,303.9,362.4,304.6z"/>
		<path class="st0" d="M398.6,298.7c3.8,9,10,16.1,18,20.6c9.2,5.1,19.9,6.1,30.2,2.8c0.5-0.2,1-0.6,1.2-1.2
			c0.2-0.6,0.3-1.2,0.1-1.8c-3-9-8.9-16.1-17-20.6c-9.2-5.1-20.3-6.1-31.3-2.9c-0.6,0.2-1,0.6-1.3,1.2
			C398.3,297.3,398.3,298.1,398.6,298.7z"/>
		<path class="st0" d="M464,272.9c14.5,8,34.1,3.8,45.5-9.7c0.4-0.5,0.6-1.1,0.5-1.8s-0.4-1.3-0.9-1.6c-2.8-2.1-5.5-4-8.3-5.6
			c-5.5-3-10.4-3.9-15.5-2.7l-4.6,0.7l-0.3,0.1c-8.8,0.5-16.5,4.5-23.4,12.2c-0.4,0.4-0.6,1.1-0.6,1.7c0,0.6,0.3,1.2,0.7,1.6
			C459.2,269.8,461.5,271.5,464,272.9z"/>
		<path class="st0" d="M505,85.2c-2.9-1.6-5.9-2.6-8.8-2.9c-0.5-0.1-1.1,0.1-1.5,0.5c-0.4,0.4-0.6,1-0.6,1.6c0,0.9-0.1,1.8-0.1,2.7
			c-0.1,2-0.3,4,0.1,6c2.3,14,8.3,25.2,17.8,33c0.4,0.3,0.8,0.6,1.2,0.8c1.5,0.9,3.2,1.2,4.9,1.5c0.9,0.2,1.7,0.3,2.5,0.6
			c0.5,0.1,1,0.1,1.5-0.2c0.4-0.3,0.8-0.8,0.9-1.4c0.2-0.9,0.4-1.7,0.7-2.6c0.6-2.2,1.2-4.4,1.1-6.8
			C523.8,104.7,515.8,91.2,505,85.2z"/>
		<path class="st0" d="M446.4,266.5c11.6-7.3,13.8-19.8,14.4-29.8c0.4-5.6-1-11.2-2.2-16.6c-0.2-0.9-0.4-1.9-0.6-2.8
			c-0.8-3.4-2.2-4.9-3.3-5.5c-2.4-1.4-5.2,0.1-7,3.7c-3.1,6.3-6.4,13.9-8.1,21.9c-1.6,7.5-2.9,18.7,4.5,28.6
			c0.2,0.2,0.4,0.4,0.6,0.6C445.2,266.8,445.8,266.8,446.4,266.5z"/>
		<path class="st0" d="M480.2,236.4c1.4-1.9,2.9-3.8,3.4-6.3c2.6-12.2,1.4-22.4-3.7-31.2c-0.1-0.2-0.2-0.3-0.4-0.5l-3.6-6l-5-8.5
			c-0.2-0.3-0.5-0.6-0.8-0.7c-0.3-0.2-0.6-0.2-0.9-0.2c-0.7,0-1.2,0.4-1.6,1.1c-0.7,1.3-1.3,2.4-1.8,3.3c-1,1.7-1.8,3.1-2.1,4.8
			c-3.2,14.9-1.4,28.6,5.5,40.8c1.2,2,2.9,3.3,4.7,4.6c0.7,0.5,1.4,1,2,1.5c0.1,0.1,0.2,0.2,0.3,0.2c0.3,0.2,0.7,0.3,1.1,0.2
			c0.5-0.1,1-0.4,1.3-0.9C479.1,237.9,479.6,237.2,480.2,236.4z"/>
		<path class="st0" d="M417.1,281.4c6-3.4,11-11.2,13.6-20.8c2.8-10.6,2.2-21.8-1.7-29.9c-0.2-0.4-0.5-0.7-0.8-0.9
			c-0.2-0.1-0.4-0.2-0.6-0.2c-0.6-0.1-1.2,0.1-1.6,0.6c-1.2,1.3-2.3,2.6-3.5,3.8c-2.5,2.6-4.9,5.1-6.7,8.2
			c-6.9,11.4-9.6,21.8-8.5,32.7c0.3,2.8,0.9,6.2,3.3,7.6C412.7,283.5,415.2,282.5,417.1,281.4z"/>
		<path class="st0" d="M382.1,262.6c-2.9,5.3-6.6,13.5-5.6,23.3c0.1,1.1,0.5,4.6,2.9,6c1.3,0.7,2.8,0.7,4.9,0.1
			c7-2.2,14.7-11.6,18.7-22.9c3.4-9.6,3.4-18.4,0.2-24.8c-0.2-0.4-0.5-0.7-0.8-0.9c-0.4-0.2-0.9-0.3-1.3-0.1
			C391.7,246.1,386.3,254.7,382.1,262.6z"/>
		<path class="st0" d="M524.8,86.8c0.4-0.3,0.8-0.8,0.9-1.4c4.2-22.1-3.9-44.3-19.2-52.8c-1-0.6-2-1.1-3.1-1.5
			c-1-0.4-2.1,0.2-2.4,1.3c-5.2,16,2.3,44.1,18.2,52.8c1.3,0.7,2.7,1.3,4.1,1.8C523.8,87.2,524.4,87.1,524.8,86.8z"/>
		<path class="st0" d="M494.8,201.5c6.8-7.8,6.9-24.6,0.1-36c-2.1-6.9-6.1-12-11.9-15.2c-0.6-0.3-1.2-0.7-1.9-0.9
			c-0.8-0.3-1.6-0.1-2.2,0.6c-3.7,5.1-4.7,13.7-2.9,23.7c2,10.6,7.6,23.4,15.8,27.9c0.3,0.2,0.6,0.3,0.9,0.4
			C493.4,202.3,494.2,202.2,494.8,201.5z"/>
		<path class="st0" d="M511.9,166.9c1.4-0.7,2.4-2.2,3-4.6c3.8-14.6-6.9-36.2-17.9-42.3c-2.4-1.3-4.8-2-7.1-1.8
			c-0.8,0-1.5,0.7-1.8,1.7c-3.5,15.4,5.8,39.5,17.8,46.1l0.1,0.1C507.8,167.1,509.9,167.9,511.9,166.9z"/>
		<path class="st0" d="M441.4,298.7c10.8,6,24,6.2,35.3,0.5c0.5-0.2,0.9-0.7,1.1-1.3c0.2-0.6,0.1-1.2-0.1-1.8
			c-3.1-6.8-8.1-12.3-14.4-15.8c-10.4-5.7-23.5-5.8-36-0.2c-0.5,0.2-1,0.8-1.1,1.4c-0.2,0.6-0.1,1.3,0.2,1.9
			C429.8,289.9,435.1,295.2,441.4,298.7z"/>
	</g>
	<path class="st0" d="M356.2,345c-20.6-5.1-41.2-10.3-61.8-15.4c-1.2-0.3-2.2-0.9-2.2-1.4c0-0.5,0.9-1.2,2.1-1.6c2-0.8,4-1.5,6-2.2
		c8.2-2.9,16.2-6.2,24.6-8.5c5.8-1.6,8.9-4,7.8-9c-0.2-1-1.5-1.5-2.6-1.1c-9.7,3.7-19.4,7.5-29.3,11c-6,2.2-11.9,5.9-19.1,2.2
		c-0.4-0.2-1-0.3-1.6-0.2c-0.6,0-1.2,0-1.6,0.2c-7.2,3.7-13.1-0.1-19.1-2.2c-9.8-3.5-19.5-7.3-29.3-11c-1.2-0.4-2.4,0-2.6,1.1
		c-1,5,2,7.4,7.8,9c8.4,2.4,16.4,5.6,24.6,8.5c2,0.7,4,1.5,6,2.2c1.2,0.4,2.1,1.2,2.1,1.6c0,0.5-1,1.1-2.2,1.4
		c-20.6,5.1-41.2,10.3-61.8,15.4c-7.2,1.8-13.1,7.3-14.8,13.9c-0.3,1,0.5,1.6,1.6,1.3c0.7-0.2,1.3-0.4,1.9-0.6
		c23.3-7.6,46.7-15.2,70-22.9c4.9-1.6,9.4-3.7,14.7-0.7c0.4,0.2,0.8,0.3,1.3,0.3c0.8,0,2,0,2.8,0c0.5,0,1-0.1,1.3-0.3
		c5.4-3,9.9-0.9,14.7,0.7c23.3,7.7,46.6,15.3,70,22.9c0.6,0.2,1.3,0.4,1.9,0.6c1.1,0.3,1.8-0.3,1.6-1.3
		C369.3,352.3,363.3,346.8,356.2,345z"/>
	<g>
		<path class="st0" d="M207.8,48.2l8.3-47.6h12c4.7,0,8.2,1.1,10.6,3.3c2.3,2.2,3.2,5.1,2.6,8.9c-0.5,2.8-1.6,5.1-3.3,7
			c-1.7,1.9-4,3.2-6.7,3.8c2.8,0.5,5,1.8,6.5,4c1.6,2.2,2.1,4.7,1.7,7.5c-0.6,4-2.5,7.2-5.6,9.5c-3.1,2.4-6.8,3.6-11.3,3.6H207.8z
			 M213.6,24.7l-3.8,21.7h12.7c4,0,7.3-1,10-3c2.7-2,4.4-4.8,5-8.2c0.6-3.1-0.2-5.6-2.2-7.5c-2-1.9-4.9-2.9-8.6-2.9H213.6z
			 M213.9,23h10.4c4.3,0,7.7-0.9,10.3-2.6c2.6-1.8,4.2-4.3,4.9-7.6c0.6-3.2-0.1-5.7-2-7.4c-1.9-1.8-5-2.7-9.1-2.8h-10.8L213.9,23z"
			/>
		<path class="st0" d="M276.3,24.6h-23.2l-3.8,21.8h26.3l-0.3,1.8h-28.2l8.3-47.6h28.1l-0.3,1.8H257l-3.6,20.5h23.1L276.3,24.6z"/>
		<path class="st0" d="M314.6,33.4c-0.4-2-1.6-3.6-3.4-4.9c-1.9-1.3-4.7-2.6-8.6-3.7c-3.9-1.2-6.7-2.3-8.6-3.5
			c-1.9-1.2-3.2-2.6-3.9-4.2c-0.8-1.6-1-3.4-0.6-5.4c0.4-2.3,1.4-4.4,3-6.1c1.6-1.8,3.7-3.1,6.2-4.1c2.5-1,5.2-1.4,8-1.4
			c2.8,0,5.3,0.6,7.5,1.8c2.2,1.2,3.7,2.9,4.7,5c1,2.1,1.3,4.5,1,7.2h-1.8c0.5-3.6-0.3-6.5-2.4-8.8c-2.2-2.3-5.1-3.5-9-3.5
			c-3.6,0-6.8,0.8-9.6,2.4c-2.9,1.6-4.7,3.7-5.5,6.4c-0.5,1.6-0.6,3-0.3,4.3c0.4,1.9,1.6,3.5,3.6,4.8c1.9,1.3,4.6,2.4,8.1,3.4
			c5.3,1.5,9,3.4,11.1,5.6s2.9,4.9,2.3,8.1c-0.4,2.4-1.4,4.5-3,6.4c-1.6,1.8-3.8,3.2-6.4,4.2c-2.6,1-5.3,1.5-8.2,1.5
			c-5,0-8.8-1.3-11.6-3.9c-2.7-2.6-3.8-6-3.2-10.2h1.8c-0.5,3.7,0.4,6.7,2.8,9c2.4,2.2,5.8,3.3,10.2,3.3c3.6,0,6.8-0.8,9.6-2.4
			c2.9-1.6,4.8-3.7,5.8-6.3C314.8,36.6,314.9,35,314.6,33.4z"/>
		<path class="st0" d="M362,2.4h-16.8l-7.9,45.8h-1.8l7.9-45.8h-16.8l0.2-1.8h35.4L362,2.4z"/>
		<path class="st0" d="M128.5,100.6h-22.5l-7.6,14.2h-2l25.4-47.5l2.1,0l9.1,47.6h-1.9L128.5,100.6z M106.8,98.8h21.3l-5.5-29.4
			L106.8,98.8z"/>
		<path class="st0" d="M140.7,114.8l8.3-47.6h12.6c3,0,5.6,0.7,7.9,2c2.3,1.3,4.2,3.1,5.6,5.5c1.4,2.4,2.2,5.1,2.4,8.1
			c0.1,1.8,0,3.7-0.3,5.5l-0.9,5.3c-0.7,4-2.1,7.6-4.2,10.8c-2.2,3.2-4.8,5.8-8,7.6c-3.2,1.8-6.6,2.8-10.3,2.8H140.7z M150.4,69
			l-7.6,44h10.4c5.2,0,9.8-1.8,13.8-5.5c4-3.7,6.5-8.4,7.5-14.3l0.9-5.2c0.4-2.4,0.4-4.8,0-7c-0.7-3.6-2.2-6.5-4.7-8.7
			c-2.5-2.1-5.5-3.3-9.1-3.3H150.4z"/>
		<path class="st0" d="M196,110.2l0.4,2.8l1.4-2.9L220,67.3h2l-24.6,47.5h-2.1l-9.9-47.6h1.9L196,110.2z"/>
		<path class="st0" d="M250.9,91.2h-23.2l-3.8,21.8h26.3l-0.3,1.8h-28.2l8.3-47.6h28.1L258,69h-26.4L228,89.4h23.1L250.9,91.2z"/>
		<path class="st0" d="M292.5,114.8h-1.7l-22.1-44.6l-7.7,44.6h-1.8l8.2-47.6h1.7l22.1,44.5l7.7-44.5h1.8L292.5,114.8z"/>
		<path class="st0" d="M343.2,69h-16.8l-7.9,45.8h-1.8l7.9-45.8h-16.8l0.2-1.8h35.4L343.2,69z"/>
		<path class="st0" d="M383.1,67.2l-5.5,32.1c-0.8,4.9-2.9,8.8-6.3,11.8c-3.3,2.9-7.4,4.4-12.2,4.4c-3,0-5.6-0.7-7.8-2
			c-2.2-1.3-3.7-3.2-4.7-5.7c-1-2.5-1.2-5.2-0.7-8.3l5.6-32.2h1.7l-5.6,32.2c-0.7,4.2,0.1,7.6,2.2,10.2c2.1,2.6,5.2,4,9.2,4
			c4.2,0,7.9-1.4,11-4.1c3.1-2.7,5-6.3,5.8-10.7l5.5-31.7H383.1z"/>
		<path class="st0" d="M408.3,94.4h-16l-3.5,20.4h-1.7l8.2-47.6h14.6c2.9,0,5.4,0.6,7.5,1.8c2.1,1.2,3.7,2.8,4.7,4.9
			c1,2.1,1.2,4.4,0.8,7.1c-0.5,3.2-2,6-4.3,8.4c-2.3,2.4-5.1,3.9-8.3,4.7l8.8,20.3l-0.1,0.5h-1.8L408.3,94.4z M392.6,92.7h14
			c3.6,0,6.7-1.1,9.4-3.3c2.7-2.2,4.4-5,5-8.4c0.7-3.6-0.1-6.5-2.3-8.7c-2.2-2.2-5.3-3.3-9.5-3.3h-12.6L392.6,92.7z"/>
		<path class="st0" d="M459,91.2h-23.2L432,113h26.3l-0.3,1.8H430l8.3-47.6h28.1l-0.3,1.8h-26.4l-3.6,20.5h23.1L459,91.2z"/>
		<path class="st0" d="M229.3,176.3c-1.6,1.8-3.9,3.2-6.8,4.2c-2.9,1-6.2,1.5-9.9,1.5c-4.3,0-7.8-1.4-10.4-4.3
			c-2.6-2.9-4.1-6.7-4.2-11.5c-0.1-1.7,0-3.4,0.3-5.1l1.3-7.6c0.7-3.9,2-7.4,4-10.6c2-3.1,4.4-5.6,7.3-7.3c2.9-1.7,6-2.6,9.3-2.6
			c4.3,0,7.8,1.2,10.3,3.7c2.6,2.4,3.8,5.7,3.7,9.9h-1.7c0-3.7-1.1-6.6-3.3-8.7c-2.2-2-5.2-3.1-9-3.1c-4.7,0-8.7,1.8-12.2,5.3
			c-3.5,3.5-5.7,8.1-6.7,13.6s-1.5,8.7-1.6,9.5c-0.1,0.8-0.1,1.6,0,2.3c0.1,4.4,1.2,8,3.5,10.6c2.3,2.6,5.4,4,9.3,4
			c3.1,0,5.9-0.4,8.5-1.2c2.6-0.8,4.7-2,6.4-3.6l2.5-13.9H216l0.2-1.8h15.9L229.3,176.3z"/>
		<path class="st0" d="M267.6,167.1H245l-7.6,14.2h-2l25.4-47.5l2.1,0l9.1,47.6h-1.9L267.6,167.1z M245.9,165.4h21.3l-5.5-29.4
			L245.9,165.4z"/>
		<path class="st0" d="M290.5,133.8l11.2,44.9l26.8-44.9h2.6l-8.2,47.6h-1.8l7.7-44.7L302,181.4h-1.4l-11.3-44.7l-7.7,44.7h-1.8
			l8.2-47.6H290.5z"/>
		<path class="st0" d="M364.8,157.8h-23.2l-3.8,21.8h26.3l-0.3,1.8h-28.2l8.3-47.6h28.1l-0.3,1.8h-26.4l-3.6,20.5H365L364.8,157.8z"
			/>
	</g>
	<g>
		<path class="st0" d="M149.7,224.6V203h6c1.7,0,3.2,0.4,4.5,1.2s2.4,1.9,3.2,3.3c0.8,1.4,1.2,3,1.2,4.8v2.8c0,1.8-0.4,3.4-1.1,4.9
			c-0.8,1.4-1.8,2.6-3.2,3.4c-1.4,0.8-2.9,1.2-4.5,1.2H149.7z M150.5,203.8v19.9h5.2c1.5,0,2.9-0.4,4.1-1.1c1.2-0.7,2.2-1.8,2.9-3.1
			s1.1-2.8,1.1-4.4v-2.8c0-1.6-0.3-3.1-1-4.4c-0.7-1.3-1.6-2.3-2.9-3.1c-1.2-0.7-2.6-1.1-4.1-1.1H150.5z"/>
		<path class="st0" d="M177.7,215.3h-7.5v9.2h-0.8V203h6.9c2.2,0,3.9,0.6,5.2,1.7c1.3,1.1,1.9,2.6,1.9,4.5c0,1.5-0.5,2.8-1.4,3.9
			c-0.9,1.1-2.1,1.8-3.5,2l5.8,9.2v0.2h-0.8L177.7,215.3z M170.3,214.5h6.8c1.7,0,3-0.5,4-1.5c1-1,1.5-2.3,1.5-3.8
			c0-1.7-0.6-3-1.7-4c-1.1-1-2.7-1.5-4.6-1.5h-6V214.5z"/>
		<path class="st0" d="M201,213.9h-10.8v9.9h12.3v0.8h-13.1V203h13.1v0.8h-12.3v9.3H201V213.9z"/>
		<path class="st0" d="M218,218.1h-10.5l-2.4,6.4h-0.9l8.1-21.5h1l8.1,21.5h-0.9L218,218.1z M207.7,217.3h10l-5-13.3L207.7,217.3z"
			/>
		<path class="st0" d="M225.9,203l8.9,20.4l8.9-20.4h1.2v21.5H244v-20.4l-8.9,20.4h-0.6l-8.9-20.3v20.3h-0.8V203H225.9z"/>
		<path class="st0" d="M266.1,224.6h-0.8v-10.7h-13.8v10.7h-0.8V203h0.8v10.1h13.8V203h0.8V224.6z"/>
		<path class="st0" d="M283.6,218.1H273l-2.4,6.4h-0.9l8.1-21.5h1l8.1,21.5H286L283.6,218.1z M273.3,217.3h10l-5-13.3L273.3,217.3z"
			/>
		<path class="st0" d="M304.8,218c-0.2,2.2-1,3.9-2.3,5.1c-1.3,1.2-3.1,1.8-5.4,1.8c-1.5,0-2.9-0.4-4.1-1.2
			c-1.2-0.8-2.1-1.9-2.7-3.3s-1-3.1-1-4.9v-3.3c0-1.8,0.3-3.5,1-4.9c0.6-1.4,1.6-2.6,2.7-3.4s2.6-1.2,4.1-1.2c2.2,0,4,0.6,5.4,1.8
			c1.3,1.2,2.1,2.9,2.3,5.1H304c-0.2-2-0.9-3.5-2.1-4.5s-2.8-1.5-4.8-1.5c-2.1,0-3.8,0.8-5.1,2.4s-1.9,3.7-1.9,6.3v3.2
			c0,1.7,0.3,3.2,0.9,4.5c0.6,1.3,1.4,2.3,2.5,3.1c1.1,0.7,2.3,1.1,3.7,1.1c2.1,0,3.7-0.5,4.8-1.5c1.2-1,1.8-2.5,2-4.6H304.8z"/>
		<path class="st0" d="M314.1,213.2l-3.4,3.2v8.2h-0.8V203h0.8v12.5l3.6-3.5l8.9-9h1.2l-9.6,9.7l10.3,11.9h-1L314.1,213.2z"/>
		<path class="st0" d="M341.2,215.1h-7v-0.8h7V215.1z"/>
		<path class="st0" d="M364.7,224.6h-12.9v-0.8l7.4-8.5c1.2-1.4,2.1-2.7,2.7-3.8s0.9-2.1,0.9-3c0-1.6-0.5-2.8-1.4-3.7
			c-0.9-0.9-2.2-1.3-3.9-1.3c-1,0-1.9,0.2-2.8,0.7s-1.5,1.2-1.9,2c-0.5,0.9-0.7,1.8-0.7,2.8h-0.8c0-1.2,0.3-2.2,0.8-3.2
			c0.5-1,1.3-1.8,2.2-2.3c0.9-0.6,2-0.8,3.2-0.8c1.9,0,3.4,0.5,4.5,1.5c1.1,1,1.6,2.4,1.6,4.3c0,1.7-0.9,3.7-2.8,6l-1.3,1.6
			l-6.5,7.6h11.8V224.6z"/>
		<path class="st0" d="M380.9,215.8c0,2.9-0.6,5.1-1.7,6.7c-1.1,1.6-2.7,2.4-4.7,2.4c-2,0-3.6-0.8-4.7-2.4s-1.7-3.8-1.7-6.7v-3.9
			c0-2.9,0.6-5.1,1.7-6.7c1.1-1.6,2.7-2.4,4.7-2.4c2,0,3.6,0.8,4.8,2.4c1.1,1.6,1.7,3.9,1.7,6.8V215.8z M380.1,211.8
			c0-2.6-0.5-4.7-1.5-6.1c-1-1.5-2.4-2.2-4.2-2.2c-1.8,0-3.2,0.7-4.2,2.2c-1,1.5-1.5,3.5-1.5,6.2v3.9c0,2.6,0.5,4.6,1.5,6.1
			c1,1.5,2.4,2.2,4.2,2.2c1.8,0,3.2-0.7,4.2-2.2c1-1.5,1.5-3.5,1.5-6.2V211.8z"/>
		<path class="st0" d="M392.5,224.6h-0.8V204l-6.2,2.3v-0.9l6.8-2.5h0.2V224.6z"/>
		<path class="st0" d="M413.9,208.5c0,1.2-0.4,2.3-1.1,3.2c-0.7,0.9-1.7,1.5-2.9,1.9c1.4,0.4,2.5,1.1,3.4,2s1.3,2.1,1.3,3.4
			c0,1.8-0.6,3.3-1.9,4.3c-1.2,1.1-2.9,1.6-5,1.6c-2.1,0-3.8-0.5-5-1.6s-1.9-2.5-1.9-4.3c0-1.3,0.4-2.4,1.2-3.4c0.8-1,1.9-1.7,3.3-2
			c-1.2-0.4-2.1-1-2.9-1.9s-1.1-2-1.1-3.2c0-1.8,0.6-3.2,1.7-4.2c1.1-1,2.6-1.6,4.5-1.6c1.9,0,3.4,0.5,4.5,1.6
			S413.9,206.8,413.9,208.5z M413.7,219c0-1.5-0.6-2.7-1.7-3.7s-2.6-1.4-4.4-1.4c-1.8,0-3.2,0.5-4.4,1.4c-1.1,1-1.7,2.2-1.7,3.7
			c0,1.5,0.5,2.7,1.6,3.7c1.1,0.9,2.6,1.4,4.4,1.4c1.8,0,3.3-0.5,4.4-1.4C413.2,221.8,413.7,220.5,413.7,219z M413.1,208.4
			c0-1.4-0.5-2.6-1.6-3.5c-1.1-0.9-2.4-1.4-3.9-1.4c-1.6,0-2.9,0.4-3.9,1.3c-1,0.9-1.5,2.1-1.5,3.6c0,1.4,0.5,2.5,1.5,3.4
			s2.3,1.3,3.9,1.3c1.6,0,2.9-0.4,3.9-1.3C412.6,210.9,413.1,209.8,413.1,208.4z"/>
	</g>
</g>
</svg>
