<?xml version="1.0" encoding="utf-8"?>
<!-- Generator: Adobe Illustrator 22.1.0, SVG Export Plug-In . SVG Version: 6.00 Build 0)  -->
<svg version="1.1" id="Layer_1" xmlns="http://www.w3.org/2000/svg" xmlns:xlink="http://www.w3.org/1999/xlink" x="0px" y="0px"
	 viewBox="0 0 560.1 354.3" style="enable-background:new 0 0 560.1 354.3;" xml:space="preserve">
<style type="text/css">
	.st0{fill:#FFFFFF;}
</style>
<g>
	<g>
		<path class="st0" d="M53.8,195.1c0.6-0.3,1.1-0.6,1.6-1c0.5-0.3,0.9-0.9,0.9-1.6c0.1-0.7-0.1-1.4-0.5-1.9
			c-0.9-1.1-1.7-2.2-2.6-3.2c-1.9-2.5-3.9-5.1-6.3-7.3c-2.3-2.1-4.8-3.8-7.2-5.3c-1-0.7-2.1-1.4-3.1-2.1c-0.1-0.1-0.2-0.1-0.2-0.1
			l-9.6-4.8c-0.1,0-0.1,0-0.2-0.1c-6.5-2.5-12.5-1.1-19.4,1.6c-0.1,0-0.1,0.1-0.2,0.1c-0.4,0.2-0.8,0.7-1,1.2
			c-0.2,0.6-0.2,1.3,0.1,1.9C14.6,192,38.6,203.5,53.8,195.1z"/>
		<path class="st0" d="M8.9,56.8c-0.1,0-0.2,0.1-0.2,0.1c-0.4,0.2-0.7,0.6-0.9,1.1c-4,10.4-4.1,23.9,0,36.1
			c3.4,10.4,9.4,18.4,16.4,22c0.5,0.3,1.1,0.2,1.6,0c0,0,0,0,0,0c0.5-0.3,0.9-0.8,1-1.4c6.1-26.6,0.6-46-16.3-57.6
			C10,56.7,9.4,56.6,8.9,56.8z"/>
		<path class="st0" d="M38.7,161.2c0.2,0,0.4-0.1,0.5-0.2c0.3-0.2,0.5-0.4,0.7-0.7c0.3-0.5,0.4-1.1,0.3-1.7
			C36.5,133.9,20,116.5,1.8,118c-0.2,0-0.5,0.1-0.7,0.2c-0.3,0.2-0.5,0.4-0.7,0.7c-0.3,0.5-0.5,1.2-0.3,1.8
			C4.6,145.6,22.3,164.1,38.7,161.2z"/>
		<path class="st0" d="M70.2,233.5c0.6-0.3,1.1-0.6,1.6-1c0.5-0.3,0.8-0.9,0.9-1.5c0.1-0.6,0-1.3-0.4-1.8
			c-5.3-7.7-10.3-14.3-17.6-18.2c-11.2-9.1-22.9-6.2-30.7-3.2c-0.1,0-0.2,0.1-0.2,0.1c-0.4,0.2-0.8,0.6-1,1.2
			c-0.2,0.6-0.2,1.3,0.1,1.9C31.4,230.4,55.2,241.8,70.2,233.5z"/>
		<path class="st0" d="M197.5,296.6c-0.3-0.6-0.8-0.9-1.3-1.1c-9.5-1.8-19.3-0.2-27.7,4.4c-9.7,5.4-16.4,14.3-18.3,24.5
			c-0.1,0.6,0,1.2,0.3,1.7c0.3,0.5,0.7,0.9,1.2,1c8.8,2,18.1,0.5,26.4-4c9.5-5.2,16.6-14.2,19.6-24.6
			C197.8,297.8,197.8,297.2,197.5,296.6z"/>
		<path class="st0" d="M161.5,290.6c-0.2-0.6-0.7-1.1-1.3-1.2c-11-3.2-22.1-2.1-31.3,2.9c-8.1,4.5-14,11.6-17,20.6
			c-0.2,0.6-0.2,1.3,0.1,1.8c0.2,0.6,0.7,1,1.2,1.2c10.3,3.3,21,2.3,30.2-2.8c8-4.4,14.2-11.5,18-20.6
			C161.8,292,161.8,291.3,161.5,290.6z"/>
		<path class="st0" d="M102.9,261.7c0.4-0.4,0.7-1,0.7-1.6c0-0.6-0.2-1.2-0.6-1.7c-7-7.8-14.6-11.7-23.4-12.2l-0.3-0.1l-4.6-0.7
			c-5.1-1.2-10-0.3-15.5,2.7c-2.8,1.5-5.5,3.5-8.3,5.6c-0.5,0.4-0.8,1-0.9,1.6c-0.1,0.7,0.1,1.3,0.5,1.8c11.4,13.6,31,17.7,45.5,9.7
			C98.6,265.4,100.9,263.7,102.9,261.7z"/>
		<path class="st0" d="M35.7,111.9c-0.1,2.4,0.5,4.6,1.1,6.8c0.2,0.9,0.5,1.8,0.7,2.6c0.1,0.6,0.4,1.1,0.9,1.4
			c0.4,0.3,1,0.4,1.5,0.2c0.8-0.2,1.6-0.4,2.5-0.6c1.7-0.3,3.4-0.7,4.9-1.5c0.4-0.2,0.9-0.5,1.2-0.8c9.5-7.9,15.5-19,17.8-33
			c0.3-2,0.2-4,0.1-6c-0.1-0.9-0.1-1.8-0.1-2.7c0-0.6-0.2-1.2-0.6-1.6c-0.4-0.4-0.9-0.6-1.5-0.5c-3,0.3-5.9,1.3-8.8,2.9
			C44.3,85.1,36.3,98.6,35.7,111.9z"/>
		<path class="st0" d="M115.5,260.4c0.2-0.1,0.4-0.3,0.6-0.6c7.4-9.9,6.1-21,4.5-28.6c-1.7-8.1-5.1-15.6-8.1-21.9
			c-1.7-3.6-4.5-5-7-3.7c-1.1,0.6-2.5,2-3.3,5.5c-0.2,0.9-0.4,1.9-0.6,2.8c-1.3,5.4-2.6,11-2.2,16.6c0.6,10,2.9,22.5,14.4,29.8
			C114.3,260.7,114.9,260.7,115.5,260.4z"/>
		<path class="st0" d="M81.5,232.5c0.3,0.5,0.8,0.8,1.3,0.9c0.4,0.1,0.8,0,1.1-0.2c0.1-0.1,0.2-0.1,0.3-0.2c0.6-0.5,1.3-1,2-1.5
			c1.7-1.2,3.5-2.5,4.7-4.6c6.9-12.2,8.8-26,5.5-40.8c-0.4-1.6-1.1-3-2.1-4.8c-0.5-0.9-1.1-2-1.8-3.3c-0.3-0.7-0.9-1.1-1.6-1.1
			c-0.3,0-0.6,0.1-0.9,0.2c-0.3,0.2-0.6,0.4-0.8,0.7l-5,8.5l-3.6,6c-0.1,0.1-0.3,0.3-0.4,0.5c-5.2,8.8-6.4,19-3.7,31.2
			c0.5,2.5,2,4.4,3.4,6.3C80.4,231.1,81,231.8,81.5,232.5z"/>
		<path class="st0" d="M149.5,276.3c2.4-1.3,3-4.7,3.3-7.6c1.1-10.8-1.6-21.2-8.5-32.7c-1.8-3.1-4.2-5.6-6.7-8.2
			c-1.1-1.2-2.3-2.4-3.5-3.8c-0.4-0.5-1-0.7-1.6-0.6c-0.2,0-0.4,0.1-0.6,0.2c-0.4,0.2-0.7,0.5-0.8,0.9c-3.9,8.1-4.5,19.2-1.7,29.9
			c2.6,9.6,7.7,17.4,13.6,20.8C144.9,276.4,147.4,277.5,149.5,276.3z"/>
		<path class="st0" d="M159,237.2c-0.4-0.1-0.9-0.1-1.3,0.1c-0.3,0.2-0.6,0.5-0.8,0.9c-3.2,6.5-3.2,15.3,0.2,24.8
			c4,11.3,11.7,20.7,18.7,22.9c2.1,0.6,3.6,0.6,4.9-0.1c2.5-1.4,2.8-4.8,2.9-6c1-9.8-2.7-18-5.6-23.3
			C173.8,248.7,168.4,240,159,237.2z"/>
		<path class="st0" d="M36.8,80.9c1.4-0.4,2.8-1,4.1-1.8c15.9-8.8,23.4-36.9,18.2-52.8c-0.4-1.1-1.4-1.7-2.4-1.3
			c-1,0.4-2.1,0.9-3.1,1.5c-15.3,8.5-23.4,30.6-19.2,52.8c0.1,0.6,0.4,1.1,0.9,1.4C35.7,81,36.3,81.1,36.8,80.9z"/>
		<path class="st0" d="M67.4,195.9c0.3-0.1,0.6-0.3,0.9-0.4c8.2-4.5,13.8-17.3,15.8-27.9c1.9-10,0.8-18.6-2.9-23.7
			c-0.5-0.7-1.4-1-2.2-0.6c-0.6,0.3-1.3,0.6-1.9,0.9c-5.8,3.2-9.8,8.3-11.9,15.2c-6.7,11.5-6.7,28.2,0.1,36
			C65.9,196.1,66.7,196.2,67.4,195.9z"/>
		<path class="st0" d="M54.1,160L54.1,160c12.1-6.7,21.4-30.8,17.9-46.2c-0.2-0.9-0.9-1.6-1.8-1.7c-2.3-0.1-4.7,0.5-7.1,1.8
			c-11,6.1-21.7,27.7-17.9,42.3c0.6,2.4,1.6,3.9,3,4.6C50.2,161.9,52.3,161,54.1,160z"/>
		<path class="st0" d="M133.9,277.3c0.3-0.6,0.4-1.3,0.2-1.9c-0.2-0.6-0.6-1.2-1.1-1.4c-12.5-5.6-25.7-5.5-36,0.2
			c-6.3,3.5-11.3,9-14.4,15.8c-0.2,0.6-0.3,1.2-0.1,1.8c0.2,0.6,0.6,1.1,1.1,1.3c11.3,5.7,24.5,5.5,35.3-0.5
			C125,289.1,130.3,283.8,133.9,277.3z"/>
	</g>
	<g>
		<path class="st0" d="M554,172.4c0.2-0.6,0.3-1.3,0.1-1.9c-0.2-0.5-0.5-0.9-1-1.2c-0.1,0-0.1-0.1-0.2-0.1c-7-2.8-13-4.1-19.4-1.6
			c-0.1,0-0.1,0-0.2,0.1l-9.6,4.8c-0.1,0-0.2,0.1-0.2,0.1c-1,0.7-2.1,1.4-3.1,2.1c-2.5,1.6-5,3.2-7.2,5.3c-2.3,2.2-4.3,4.8-6.3,7.3
			c-0.8,1.1-1.7,2.2-2.6,3.2c-0.4,0.5-0.6,1.2-0.5,1.9c0.1,0.7,0.4,1.3,0.9,1.6c0.5,0.4,1.1,0.7,1.6,1
			C521.5,203.5,545.5,192,554,172.4z"/>
		<path class="st0" d="M549.6,57c-16.9,11.6-22.4,31-16.3,57.6c0.1,0.6,0.5,1.2,1,1.4c0,0,0,0,0,0c0.5,0.3,1.1,0.3,1.6,0
			c7-3.6,13-11.6,16.4-22c4-12.2,4-25.6,0-36.1c-0.2-0.5-0.5-0.9-0.9-1.1c-0.1,0-0.2-0.1-0.2-0.1C550.7,56.6,550.1,56.7,549.6,57z"
			/>
		<path class="st0" d="M560,120.7c0.1-0.6,0-1.3-0.3-1.8c-0.2-0.3-0.4-0.5-0.7-0.7c-0.2-0.1-0.4-0.2-0.7-0.2
			c-18.2-1.5-34.7,15.9-38.5,40.5c-0.1,0.6,0,1.2,0.3,1.7c0.2,0.3,0.4,0.6,0.7,0.7c0.2,0.1,0.3,0.2,0.5,0.2
			C537.8,164.1,555.5,145.6,560,120.7z"/>
		<path class="st0" d="M537.1,210.9c0.3-0.6,0.3-1.3,0.1-1.9c-0.2-0.5-0.5-0.9-1-1.2c-0.1,0-0.1-0.1-0.2-0.1
			c-7.8-3-19.5-5.8-30.7,3.2c-7.4,3.8-12.4,10.5-17.6,18.2c-0.3,0.5-0.5,1.2-0.4,1.8c0.1,0.6,0.4,1.2,0.9,1.5c0.5,0.4,1.1,0.7,1.6,1
			C504.9,241.8,528.7,230.4,537.1,210.9z"/>
		<path class="st0" d="M362.4,298.5c3,10.4,10.1,19.3,19.6,24.6c8.3,4.6,17.6,6,26.4,4c0.5-0.1,1-0.5,1.2-1c0.3-0.5,0.4-1.1,0.3-1.7
			c-1.9-10.2-8.6-19.1-18.3-24.5c-8.4-4.6-18.2-6.2-27.7-4.4c-0.6,0.1-1,0.5-1.3,1.1C362.3,297.2,362.3,297.8,362.4,298.5z"/>
		<path class="st0" d="M398.6,292.6c3.8,9,10,16.1,18,20.6c9.2,5.1,19.9,6.1,30.2,2.8c0.5-0.2,1-0.6,1.2-1.2
			c0.2-0.6,0.3-1.2,0.1-1.8c-3-9-8.9-16.1-17-20.6c-9.2-5.1-20.3-6.1-31.3-2.9c-0.6,0.2-1,0.6-1.3,1.2
			C398.3,291.3,398.3,292,398.6,292.6z"/>
		<path class="st0" d="M464,266.8c14.5,8,34.1,3.8,45.5-9.7c0.4-0.5,0.6-1.1,0.5-1.8c-0.1-0.7-0.4-1.3-0.9-1.6
			c-2.8-2.1-5.5-4-8.3-5.6c-5.5-3-10.4-3.9-15.5-2.7l-4.6,0.7l-0.3,0.1c-8.8,0.5-16.5,4.5-23.4,12.2c-0.4,0.4-0.6,1.1-0.6,1.7
			c0,0.6,0.3,1.2,0.7,1.6C459.2,263.7,461.5,265.4,464,266.8z"/>
		<path class="st0" d="M505,79.1c-2.9-1.6-5.9-2.6-8.8-2.9c-0.5-0.1-1.1,0.1-1.5,0.5c-0.4,0.4-0.6,1-0.6,1.6c0,0.9-0.1,1.8-0.1,2.7
			c-0.1,2-0.3,4,0.1,6c2.3,14,8.3,25.2,17.8,33c0.4,0.3,0.8,0.6,1.2,0.8c1.5,0.9,3.2,1.2,4.9,1.5c0.9,0.2,1.7,0.3,2.5,0.6
			c0.5,0.1,1,0.1,1.5-0.2c0.4-0.3,0.8-0.8,0.9-1.4c0.2-0.9,0.4-1.7,0.7-2.6c0.6-2.2,1.2-4.4,1.1-6.8C523.8,98.6,515.8,85.1,505,79.1
			z"/>
		<path class="st0" d="M446.4,260.4c11.6-7.3,13.8-19.8,14.4-29.8c0.4-5.6-1-11.2-2.2-16.6c-0.2-0.9-0.4-1.9-0.6-2.8
			c-0.8-3.4-2.2-4.9-3.3-5.5c-2.4-1.4-5.2,0.1-7,3.7c-3.1,6.3-6.4,13.9-8.1,21.9c-1.6,7.5-2.9,18.7,4.5,28.6
			c0.2,0.2,0.4,0.4,0.6,0.6C445.2,260.7,445.8,260.7,446.4,260.4z"/>
		<path class="st0" d="M480.2,230.3c1.4-1.9,2.9-3.8,3.4-6.3c2.6-12.2,1.4-22.4-3.7-31.2c-0.1-0.2-0.2-0.3-0.4-0.5l-3.6-6l-5-8.5
			c-0.2-0.3-0.5-0.6-0.8-0.7c-0.3-0.2-0.6-0.2-0.9-0.2c-0.7,0-1.2,0.4-1.6,1.1c-0.7,1.3-1.3,2.4-1.8,3.3c-1,1.7-1.8,3.1-2.1,4.8
			c-3.2,14.9-1.4,28.6,5.5,40.8c1.2,2,2.9,3.3,4.7,4.6c0.7,0.5,1.4,1,2,1.5c0.1,0.1,0.2,0.2,0.3,0.2c0.3,0.2,0.7,0.3,1.1,0.2
			c0.5-0.1,1-0.4,1.3-0.9C479.1,231.8,479.6,231.1,480.2,230.3z"/>
		<path class="st0" d="M417.1,275.3c6-3.4,11-11.2,13.6-20.8c2.8-10.6,2.2-21.8-1.7-29.9c-0.2-0.4-0.5-0.7-0.8-0.9
			c-0.2-0.1-0.4-0.2-0.6-0.2c-0.6-0.1-1.2,0.1-1.6,0.6c-1.2,1.3-2.3,2.6-3.5,3.8c-2.5,2.6-4.9,5.1-6.7,8.2
			c-6.9,11.4-9.6,21.8-8.5,32.7c0.3,2.8,0.9,6.2,3.3,7.6C412.7,277.5,415.2,276.4,417.1,275.3z"/>
		<path class="st0" d="M382.1,256.5c-2.9,5.3-6.6,13.5-5.6,23.3c0.1,1.1,0.5,4.6,2.9,6c1.3,0.7,2.8,0.7,4.9,0.1
			c7-2.2,14.7-11.6,18.7-22.9c3.4-9.6,3.4-18.4,0.2-24.8c-0.2-0.4-0.5-0.7-0.8-0.9c-0.4-0.2-0.9-0.3-1.3-0.1
			C391.7,240,386.3,248.7,382.1,256.5z"/>
		<path class="st0" d="M524.8,80.7c0.4-0.3,0.8-0.8,0.9-1.4c4.2-22.1-3.9-44.3-19.2-52.8c-1-0.6-2-1.1-3.1-1.5
			c-1-0.4-2.1,0.2-2.4,1.3c-5.2,16,2.3,44.1,18.2,52.8c1.3,0.7,2.7,1.3,4.1,1.8C523.8,81.1,524.4,81,524.8,80.7z"/>
		<path class="st0" d="M494.8,195.4c6.8-7.8,6.9-24.6,0.1-36c-2.1-6.9-6.1-12-11.9-15.2c-0.6-0.3-1.2-0.7-1.9-0.9
			c-0.8-0.3-1.6-0.1-2.2,0.6c-3.7,5.1-4.7,13.7-2.9,23.7c2,10.6,7.6,23.4,15.8,27.9c0.3,0.2,0.6,0.3,0.9,0.4
			C493.4,196.2,494.2,196.1,494.8,195.4z"/>
		<path class="st0" d="M511.9,160.8c1.4-0.7,2.4-2.2,3-4.6c3.8-14.6-6.9-36.2-17.9-42.3c-2.4-1.3-4.8-2-7.1-1.8
			c-0.8,0-1.5,0.7-1.8,1.7c-3.5,15.4,5.8,39.5,17.8,46.1l0.1,0.1C507.8,161,509.9,161.9,511.9,160.8z"/>
		<path class="st0" d="M441.4,292.6c10.8,6,24,6.2,35.3,0.5c0.5-0.2,0.9-0.7,1.1-1.3c0.2-0.6,0.1-1.2-0.1-1.8
			c-3.1-6.8-8.1-12.3-14.4-15.8c-10.4-5.7-23.5-5.8-36-0.2c-0.5,0.2-1,0.8-1.1,1.4c-0.2,0.6-0.1,1.3,0.2,1.9
			C429.8,283.8,435.1,289.1,441.4,292.6z"/>
	</g>
	<path class="st0" d="M356.2,338.9c-20.6-5.1-41.2-10.3-61.8-15.4c-1.2-0.3-2.2-0.9-2.2-1.4c0-0.5,0.9-1.2,2.1-1.6
		c2-0.8,4-1.5,6-2.2c8.2-2.9,16.2-6.2,24.6-8.5c5.8-1.6,8.9-4,7.8-9c-0.2-1-1.5-1.5-2.6-1.1c-9.7,3.7-19.4,7.5-29.3,11
		c-6,2.2-11.9,5.9-19.1,2.2c-0.4-0.2-1-0.3-1.6-0.2c-0.6,0-1.2,0-1.6,0.2c-7.2,3.7-13.1-0.1-19.1-2.2c-9.8-3.5-19.5-7.3-29.3-11
		c-1.2-0.4-2.4,0-2.6,1.1c-1,5,2,7.4,7.8,9c8.4,2.4,16.4,5.6,24.6,8.5c2,0.7,4,1.5,6,2.2c1.2,0.4,2.1,1.2,2.1,1.6
		c0,0.5-1,1.1-2.2,1.4c-20.6,5.1-41.2,10.3-61.8,15.4c-7.2,1.8-13.1,7.3-14.8,13.9c-0.3,1,0.5,1.6,1.6,1.3c0.7-0.2,1.3-0.4,1.9-0.6
		c23.3-7.6,46.7-15.2,70-22.9c4.9-1.6,9.4-3.7,14.7-0.7c0.4,0.2,0.8,0.3,1.3,0.3c0.8,0,2,0,2.8,0c0.5,0,1-0.1,1.3-0.3
		c5.4-3,9.9-0.9,14.7,0.7c23.3,7.7,46.6,15.3,70,22.9c0.6,0.2,1.3,0.4,1.9,0.6c1.1,0.3,1.8-0.3,1.6-1.3
		C369.3,346.2,363.3,340.7,356.2,338.9z"/>
	<g>
		<path class="st0" d="M229.4,42.9c-1.6,1.8-3.8,3.2-6.8,4.2c-2.9,1-6.2,1.5-9.8,1.5c-4.3,0-7.7-1.4-10.4-4.3
			c-2.6-2.9-4-6.7-4.2-11.5c-0.1-1.7,0-3.4,0.3-5l1.3-7.5c0.7-3.9,2-7.4,4-10.5c2-3.1,4.4-5.5,7.3-7.2c2.9-1.7,5.9-2.6,9.3-2.6
			c4.3,0,7.7,1.2,10.3,3.6c2.6,2.4,3.8,5.7,3.7,9.8h-1.7c0-3.7-1.1-6.6-3.3-8.6c-2.2-2-5.2-3.1-9-3.1c-4.6,0-8.7,1.8-12.2,5.3
			c-3.5,3.5-5.7,8-6.7,13.6c-1,5.5-1.5,8.7-1.5,9.5c-0.1,0.8-0.1,1.5,0,2.3c0.1,4.4,1.2,7.9,3.5,10.5c2.3,2.6,5.4,3.9,9.3,3.9
			c3.1,0,5.9-0.4,8.5-1.2c2.6-0.8,4.7-2,6.4-3.6l2.4-13.8h-14l0.2-1.8h15.8L229.4,42.9z"/>
		<path class="st0" d="M267.5,33.8H245L237.5,48h-2l25.3-47.3l2.1,0L272,48h-1.9L267.5,33.8z M245.9,32.1h21.2l-5.5-29.2L245.9,32.1
			z"/>
		<path class="st0" d="M290.2,0.6l11.1,44.7L328,0.6h2.6L322.5,48h-1.8l7.7-44.4L301.7,48h-1.4L289.1,3.5L281.4,48h-1.8l8.2-47.3
			H290.2z"/>
		<path class="st0" d="M364.2,24.5h-23l-3.8,21.7h26.2l-0.3,1.8h-28l8.2-47.3h28l-0.3,1.8H345l-3.5,20.3h23L364.2,24.5z"/>
		<path class="st0" d="M129.6,100.1c-1.3,4.7-3.6,8.4-6.9,11.1c-3.3,2.7-7.3,4-11.9,4c-2.8,0-5.2-0.6-7.2-1.9
			c-2-1.3-3.6-3.2-4.7-5.7s-1.6-5.2-1.6-8.3c0-1.7,0.1-3.4,0.4-5.1l1.1-6.3c1.1-6.3,3.4-11.4,7.1-15.4c3.6-4,8-6,13.1-6
			c4.5,0,8,1.3,10.5,4c2.5,2.7,3.6,6.4,3.4,11.1h-1.7c0.2-4.2-0.8-7.4-2.9-9.8c-2.1-2.4-5.2-3.5-9.3-3.5c-2.9,0-5.5,0.8-8,2.3
			c-2.5,1.5-4.7,3.8-6.5,6.8c-1.9,3-3.1,6.4-3.8,10.3l-1.2,6.8c-0.2,1.4-0.4,2.9-0.4,4.4c0,2.8,0.4,5.4,1.3,7.7
			c0.9,2.3,2.3,4,4.1,5.2c1.8,1.2,3.9,1.8,6.4,1.8c4.2,0,7.8-1.2,10.8-3.5c2.9-2.3,5-5.6,6.3-9.8H129.6z"/>
		<path class="st0" d="M159.1,94.3h-15.9l-3.5,20.2h-1.7l8.2-47.3h14.5c2.9,0,5.4,0.6,7.5,1.8s3.7,2.8,4.6,4.8
			c1,2.1,1.2,4.4,0.8,7.1c-0.5,3.2-2,6-4.3,8.4c-2.3,2.4-5.1,3.9-8.3,4.6l8.7,20.2l-0.1,0.5h-1.8L159.1,94.3z M143.4,92.5h13.9
			c3.6,0,6.7-1.1,9.4-3.3c2.7-2.2,4.3-5,5-8.4c0.7-3.6-0.1-6.5-2.2-8.6c-2.1-2.2-5.3-3.3-9.4-3.3h-12.5L143.4,92.5z"/>
		<path class="st0" d="M209.5,91.1h-23l-3.8,21.7h26.2l-0.3,1.8h-28l8.2-47.3h28l-0.3,1.8h-26.2l-3.5,20.3h23L209.5,91.1z"/>
		<path class="st0" d="M244.4,100.4H222l-7.6,14.1h-2l25.3-47.3l2.1,0l9.1,47.3h-1.9L244.4,100.4z M222.9,98.6H244l-5.5-29.2
			L222.9,98.6z"/>
		<path class="st0" d="M290.9,69h-16.7l-7.9,45.6h-1.8l7.9-45.6h-16.7l0.2-1.8h35.2L290.9,69z"/>
		<path class="st0" d="M305.6,115.2c-2.8,0-5.3-0.6-7.4-1.9c-2.1-1.3-3.8-3.1-5-5.6c-1.2-2.4-1.8-5.2-1.9-8.3c0-1.7,0.1-3.3,0.4-5
			l1.1-6.5c0.7-4.2,2.1-8,4.1-11.3c2-3.3,4.5-5.8,7.4-7.5c2.9-1.7,6-2.6,9.4-2.6c2.8,0,5.3,0.6,7.5,1.9c2.1,1.3,3.8,3.2,5,5.6
			c1.2,2.5,1.8,5.2,1.9,8.2c0,1.8-0.1,3.6-0.4,5.2l-1.1,6.5c-0.7,4-2,7.6-4,10.9s-4.4,5.8-7.3,7.6
			C312.3,114.3,309.1,115.2,305.6,115.2z M326.3,82.7c-0.1-4.5-1.2-8-3.4-10.6s-5.3-3.8-9.2-3.8c-4.8,0-8.9,1.8-12.4,5.4
			c-3.5,3.6-5.7,8.4-6.7,14.2l-1.1,6.6c-0.2,1.5-0.3,2.9-0.3,4.4c0,4.4,1.1,8,3.3,10.6c2.2,2.6,5.3,3.9,9.2,3.9c3,0,5.7-0.7,8.3-2.2
			c2.6-1.5,4.8-3.7,6.7-6.6c1.9-2.9,3.2-6.3,3.9-10l1.3-7.1C326.1,85.9,326.3,84.3,326.3,82.7z"/>
		<path class="st0" d="M354.7,94.3h-15.9l-3.5,20.2h-1.7l8.2-47.3h14.5c2.9,0,5.4,0.6,7.5,1.8s3.7,2.8,4.6,4.8
			c1,2.1,1.2,4.4,0.8,7.1c-0.5,3.2-2,6-4.3,8.4c-2.3,2.4-5.1,3.9-8.3,4.6l8.7,20.2l-0.1,0.5h-1.8L354.7,94.3z M339.1,92.5H353
			c3.6,0,6.7-1.1,9.4-3.3c2.7-2.2,4.3-5,5-8.4c0.7-3.6-0.1-6.5-2.2-8.6c-2.1-2.2-5.3-3.3-9.4-3.3h-12.5L339.1,92.5z"/>
		<path class="st0" d="M407.3,115.2c-2.8,0-5.3-0.6-7.4-1.9c-2.1-1.3-3.8-3.1-5-5.6c-1.2-2.4-1.8-5.2-1.9-8.3c0-1.7,0.1-3.3,0.4-5
			l1.1-6.5c0.7-4.2,2.1-8,4.1-11.3c2-3.3,4.5-5.8,7.4-7.5c2.9-1.7,6-2.6,9.4-2.6c2.8,0,5.3,0.6,7.5,1.9c2.1,1.3,3.8,3.2,5,5.6
			c1.2,2.5,1.8,5.2,1.9,8.2c0,1.8-0.1,3.6-0.4,5.2l-1.1,6.5c-0.7,4-2,7.6-4,10.9c-2,3.3-4.4,5.8-7.3,7.6
			C413.9,114.3,410.8,115.2,407.3,115.2z M428,82.7c-0.1-4.5-1.2-8-3.4-10.6s-5.3-3.8-9.2-3.8c-4.8,0-8.9,1.8-12.4,5.4
			c-3.5,3.6-5.7,8.4-6.7,14.2l-1.1,6.6c-0.2,1.5-0.3,2.9-0.3,4.4c0,4.4,1.1,8,3.3,10.6c2.2,2.6,5.3,3.9,9.2,3.9c3,0,5.7-0.7,8.3-2.2
			c2.6-1.5,4.8-3.7,6.7-6.6c1.9-2.9,3.2-6.3,3.9-10l1.3-7.1C427.8,85.9,428,84.3,428,82.7z"/>
		<path class="st0" d="M464.7,91.3h-23.5l-4,23.3h-1.8l8.2-47.3H472l-0.2,1.8H445l-3.6,20.5h23.5L464.7,91.3z"/>
		<path class="st0" d="M175.4,135.5h-16.7l-7.9,45.6H149l7.9-45.6h-16.7l0.2-1.8h35.2L175.4,135.5z"/>
		<path class="st0" d="M208.5,181.1h-1.8l4-23.5h-29.3l-4.1,23.5h-1.8l8.2-47.3h1.8l-3.8,22.1h29.3l3.8-22.1h1.7L208.5,181.1z"/>
		<path class="st0" d="M250.3,157.6h-23l-3.8,21.7h26.2l-0.3,1.8h-28l8.2-47.3h28l-0.3,1.8h-26.2l-3.5,20.3h23L250.3,157.6z"/>
		<path class="st0" d="M290.5,161.5l20.9-27.7l2.2,0l-22.4,29.4l-3.1,17.8h-1.8l3.1-18.1l-12.3-29.2h2.2L290.5,161.5z"/>
		<path class="st0" d="M342,157.6h-23l-3.8,21.7h26.2l-0.3,1.8h-28l8.2-47.3h28l-0.3,1.8h-26.2l-3.5,20.3h23L342,157.6z"/>
		<path class="st0" d="M376.9,167h-22.4l-7.6,14.1H345l25.3-47.3l2.1,0l9.1,47.3h-1.9L376.9,167z M355.4,165.2h21.2l-5.5-29.2
			L355.4,165.2z"/>
		<path class="st0" d="M410.1,160.9h-15.9l-3.5,20.2H389l8.2-47.3h14.5c2.9,0,5.4,0.6,7.5,1.8s3.7,2.8,4.6,4.8
			c1,2.1,1.2,4.4,0.8,7.1c-0.5,3.2-2,6-4.3,8.4c-2.3,2.4-5.1,3.9-8.3,4.6l8.7,20.2l-0.1,0.5h-1.8L410.1,160.9z M394.5,159.1h13.9
			c3.6,0,6.7-1.1,9.4-3.3c2.7-2.2,4.3-5,5-8.4c0.7-3.6-0.1-6.5-2.2-8.6c-2.1-2.2-5.3-3.3-9.4-3.3h-12.5L394.5,159.1z"/>
	</g>
	<g>
		<path class="st0" d="M145,217.9l0.9-3.3l4.7-15.3h0.8l4.6,15.3l0.9,3.3l0.9-3.3l4.1-15.3h0.8l-5.3,19.7h-0.8l-4.9-16.5l-0.7-2.1
			l-0.7,2.1l-4.9,16.5h-0.8l-5.3-19.7h0.8l4.1,15.3L145,217.9z"/>
		<path class="st0" d="M167.5,219.1h-0.7v-19.7h0.7V219.1z"/>
		<path class="st0" d="M187.7,219.1H187l-12.7-18.5v18.5h-0.7v-19.7h0.7l12.7,18.5v-18.5h0.7V219.1z"/>
		<path class="st0" d="M193.1,219.1v-19.7h5.5c1.5,0,2.9,0.4,4.2,1.1c1.2,0.7,2.2,1.7,2.9,3c0.7,1.3,1.1,2.8,1.1,4.4v2.6
			c0,1.6-0.3,3.1-1,4.4c-0.7,1.3-1.7,2.4-2.9,3.1c-1.2,0.7-2.6,1.1-4.2,1.1H193.1z M193.8,200.1v18.3h4.7c1.4,0,2.6-0.3,3.8-1
			c1.1-0.7,2-1.6,2.7-2.8c0.6-1.2,1-2.5,1-4V208c0-1.5-0.3-2.8-0.9-4c-0.6-1.2-1.5-2.1-2.6-2.8c-1.1-0.7-2.4-1-3.7-1.1H193.8z"/>
		<path class="st0" d="M225.3,210.7c0,1.7-0.3,3.2-0.9,4.5c-0.6,1.3-1.5,2.3-2.6,3.1c-1.1,0.7-2.4,1.1-3.9,1.1c-2.2,0-4-0.8-5.4-2.4
			c-1.4-1.6-2.1-3.7-2.1-6.4v-2.8c0-1.7,0.3-3.2,0.9-4.5c0.6-1.3,1.5-2.3,2.6-3.1c1.1-0.7,2.4-1.1,3.9-1.1c1.5,0,2.8,0.4,3.9,1.1
			c1.1,0.7,2,1.7,2.6,3.1c0.6,1.3,0.9,2.8,0.9,4.5V210.7z M224.5,207.7c0-2.4-0.6-4.3-1.8-5.7c-1.2-1.4-2.8-2.2-4.9-2.2
			c-2,0-3.7,0.7-4.9,2.1c-1.2,1.4-1.8,3.4-1.8,5.9v2.9c0,1.6,0.3,3,0.8,4.2c0.5,1.2,1.3,2.1,2.3,2.8c1,0.7,2.2,1,3.6,1
			c2.1,0,3.7-0.7,4.9-2.2c1.2-1.4,1.8-3.4,1.8-5.9V207.7z"/>
		<path class="st0" d="M233.7,217.9l0.9-3.3l4.7-15.3h0.8l4.6,15.3l0.9,3.3l0.9-3.3l4.1-15.3h0.8l-5.3,19.7h-0.8l-4.9-16.5l-0.7-2.1
			l-0.7,2.1l-4.9,16.5h-0.8l-5.3-19.7h0.8l4.1,15.3L233.7,217.9z"/>
		<path class="st0" d="M266.8,214.4c0-0.8-0.2-1.6-0.6-2.1c-0.4-0.6-1-1.1-1.9-1.5c-0.8-0.4-2.1-0.9-3.8-1.4c-1.7-0.5-3-0.9-3.8-1.4
			c-0.9-0.5-1.5-1-1.9-1.7c-0.4-0.6-0.6-1.4-0.6-2.3c0-1.4,0.6-2.6,1.8-3.5c1.2-0.9,2.8-1.3,4.7-1.3c1.3,0,2.4,0.2,3.4,0.7
			c1,0.5,1.8,1.2,2.3,2.1c0.6,0.9,0.8,1.9,0.8,3h-0.7c0-1.5-0.5-2.7-1.6-3.7c-1.1-1-2.5-1.4-4.2-1.4c-1.7,0-3.1,0.4-4.2,1.2
			c-1.1,0.8-1.6,1.7-1.6,2.9c0,1.2,0.5,2.1,1.4,2.9c0.9,0.7,2.5,1.4,4.6,1.9c2.1,0.6,3.7,1.2,4.7,1.9c1.3,0.9,1.9,2.2,1.9,3.7
			c0,1-0.3,1.9-0.8,2.6c-0.6,0.8-1.4,1.4-2.4,1.8s-2.2,0.6-3.5,0.6c-1.4,0-2.7-0.2-3.9-0.7c-1.1-0.5-2-1.2-2.6-2
			c-0.6-0.9-0.9-1.9-0.9-3.1h0.7c0,1.6,0.6,2.9,1.8,3.8c1.2,0.9,2.8,1.3,4.7,1.3c1.7,0,3.2-0.4,4.3-1.2
			C266.2,216.7,266.8,215.6,266.8,214.4z"/>
		<path class="st0" d="M278,219.1v-19.7h5.5c1.5,0,2.9,0.4,4.2,1.1c1.2,0.7,2.2,1.7,2.9,3c0.7,1.3,1.1,2.8,1.1,4.4v2.6
			c0,1.6-0.3,3.1-1,4.4c-0.7,1.3-1.7,2.4-2.9,3.1c-1.2,0.7-2.6,1.1-4.2,1.1H278z M278.8,200.1v18.3h4.7c1.4,0,2.6-0.3,3.8-1
			c1.1-0.7,2-1.6,2.7-2.8c0.6-1.2,1-2.5,1-4V208c0-1.5-0.3-2.8-0.9-4c-0.6-1.2-1.5-2.1-2.6-2.8c-1.1-0.7-2.4-1-3.7-1.1H278.8z"/>
		<path class="st0" d="M306.8,209.3h-9.9v9.1h11.3v0.7h-12v-19.7h12v0.7h-11.3v8.5h9.9V209.3z"/>
		<path class="st0" d="M317.2,217.2l0.4,1.2l0.4-1.2l6.6-17.8h0.8l-7.4,19.7h-0.9l-7.4-19.7h0.8L317.2,217.2z"/>
		<path class="st0" d="M339.2,209.3h-9.9v9.1h11.3v0.7h-12v-19.7h12v0.7h-11.3v8.5h9.9V209.3z"/>
		<path class="st0" d="M345.2,218.4h10.1v0.7h-10.9v-19.7h0.7V218.4z"/>
		<path class="st0" d="M371.8,210.7c0,1.7-0.3,3.2-0.9,4.5c-0.6,1.3-1.5,2.3-2.6,3.1c-1.1,0.7-2.4,1.1-3.9,1.1c-2.2,0-4-0.8-5.4-2.4
			c-1.4-1.6-2.1-3.7-2.1-6.4v-2.8c0-1.7,0.3-3.2,0.9-4.5c0.6-1.3,1.5-2.3,2.6-3.1c1.1-0.7,2.4-1.1,3.9-1.1c1.5,0,2.8,0.4,3.9,1.1
			c1.1,0.7,2,1.7,2.6,3.1c0.6,1.3,0.9,2.8,0.9,4.5V210.7z M371.1,207.7c0-2.4-0.6-4.3-1.8-5.7c-1.2-1.4-2.8-2.2-4.9-2.2
			c-2,0-3.7,0.7-4.9,2.1c-1.2,1.4-1.8,3.4-1.8,5.9v2.9c0,1.6,0.3,3,0.8,4.2c0.5,1.2,1.3,2.1,2.3,2.8c1,0.7,2.2,1,3.6,1
			c2.1,0,3.7-0.7,4.9-2.2c1.2-1.4,1.8-3.4,1.8-5.9V207.7z"/>
		<path class="st0" d="M377.1,210.8v8.3h-0.7v-19.7h6.2c2,0,3.6,0.5,4.7,1.5c1.1,1,1.7,2.4,1.7,4.2c0,1.8-0.5,3.2-1.6,4.2
			c-1.1,1-2.6,1.5-4.6,1.5H377.1z M377.1,210h5.4c1.8,0,3.2-0.4,4.2-1.3c1-0.9,1.5-2.1,1.5-3.6c0-1.6-0.5-2.8-1.5-3.7
			c-1-0.9-2.4-1.3-4.2-1.3h-5.4V210z"/>
		<path class="st0" d="M403.7,209.3h-9.9v9.1h11.3v0.7h-12v-19.7h12v0.7h-11.3v8.5h9.9V209.3z"/>
		<path class="st0" d="M416.4,210.7h-6.8v8.4h-0.7v-19.7h6.3c2,0,3.6,0.5,4.7,1.5c1.2,1,1.8,2.4,1.8,4.2c0,1.3-0.4,2.5-1.3,3.5
			c-0.8,1-1.9,1.6-3.2,1.9l5.3,8.4v0.2h-0.8L416.4,210.7z M409.5,209.9h6.2c1.5,0,2.7-0.5,3.7-1.4s1.4-2.1,1.4-3.5
			c0-1.5-0.5-2.7-1.6-3.6c-1-0.9-2.5-1.3-4.3-1.3h-5.5V209.9z"/>
		<path class="st0" d="M205.9,243.5h-9.7l-2.2,5.9h-0.8l7.4-19.7h0.9l7.4,19.7h-0.8L205.9,243.5z M196.5,242.8h9.1l-4.6-12.2
			L196.5,242.8z"/>
		<path class="st0" d="M215.1,248.2l0.9-3.3l4.7-15.3h0.8l4.6,15.3l0.9,3.3l0.9-3.3l4.1-15.3h0.8l-5.3,19.7h-0.8l-4.9-16.5l-0.7-2.1
			l-0.7,2.1l-4.9,16.5h-0.8l-5.3-19.7h0.8l4.1,15.3L215.1,248.2z"/>
		<path class="st0" d="M246.2,243.5h-9.7l-2.2,5.9h-0.8l7.4-19.7h0.9l7.4,19.7h-0.8L246.2,243.5z M236.8,242.8h9.1l-4.6-12.2
			L236.8,242.8z"/>
		<path class="st0" d="M259.9,241H253v8.4h-0.7v-19.7h6.3c2,0,3.6,0.5,4.7,1.5c1.2,1,1.8,2.4,1.8,4.2c0,1.3-0.4,2.5-1.3,3.5
			c-0.8,1-1.9,1.6-3.2,1.9l5.3,8.4v0.2h-0.8L259.9,241z M253,240.2h6.2c1.5,0,2.7-0.5,3.7-1.4s1.4-2.1,1.4-3.5
			c0-1.5-0.5-2.7-1.6-3.6c-1-0.9-2.5-1.3-4.3-1.3H253V240.2z"/>
		<path class="st0" d="M270.5,249.4v-19.7h5.5c1.5,0,2.9,0.4,4.2,1.1c1.2,0.7,2.2,1.7,2.9,3c0.7,1.3,1.1,2.8,1.1,4.4v2.6
			c0,1.6-0.3,3.1-1,4.4c-0.7,1.3-1.7,2.4-2.9,3.1c-1.2,0.7-2.6,1.1-4.2,1.1H270.5z M271.2,230.4v18.3h4.7c1.4,0,2.6-0.3,3.8-1
			c1.1-0.7,2-1.6,2.7-2.8c0.6-1.2,1-2.5,1-4v-2.5c0-1.5-0.3-2.8-0.9-4c-0.6-1.2-1.5-2.1-2.6-2.8c-1.1-0.7-2.4-1-3.7-1.1H271.2z"/>
		<path class="st0" d="M300.5,244.7c0-0.8-0.2-1.6-0.6-2.1c-0.4-0.6-1-1.1-1.9-1.5c-0.8-0.4-2.1-0.9-3.8-1.4s-3-0.9-3.8-1.4
			c-0.9-0.5-1.5-1-1.9-1.7c-0.4-0.6-0.6-1.4-0.6-2.3c0-1.4,0.6-2.6,1.8-3.5c1.2-0.9,2.8-1.3,4.7-1.3c1.3,0,2.4,0.2,3.4,0.7
			c1,0.5,1.8,1.2,2.3,2.1c0.6,0.9,0.8,1.9,0.8,3h-0.7c0-1.5-0.5-2.7-1.6-3.7c-1.1-1-2.5-1.4-4.2-1.4c-1.7,0-3.1,0.4-4.2,1.2
			c-1.1,0.8-1.6,1.7-1.6,2.9c0,1.2,0.5,2.1,1.4,2.9c0.9,0.7,2.5,1.4,4.6,1.9c2.1,0.6,3.7,1.2,4.7,1.9c1.3,0.9,1.9,2.2,1.9,3.7
			c0,1-0.3,1.9-0.8,2.6c-0.6,0.8-1.4,1.4-2.4,1.8c-1,0.4-2.2,0.6-3.5,0.6c-1.4,0-2.7-0.2-3.9-0.7c-1.1-0.5-2-1.2-2.6-2
			c-0.6-0.9-0.9-1.9-0.9-3.1h0.7c0,1.6,0.6,2.9,1.8,3.8c1.2,0.9,2.8,1.3,4.7,1.3c1.7,0,3.2-0.4,4.3-1.2
			C300,247,300.5,245.9,300.5,244.7z"/>
		<path class="st0" d="M322.9,249.4h-11.8v-0.7l6.7-7.8c1.1-1.3,1.9-2.4,2.5-3.4c0.5-1,0.8-1.9,0.8-2.8c0-1.4-0.4-2.6-1.3-3.4
			c-0.8-0.8-2-1.2-3.6-1.2c-0.9,0-1.8,0.2-2.5,0.7c-0.8,0.4-1.4,1.1-1.8,1.8c-0.4,0.8-0.6,1.7-0.6,2.6h-0.7c0-1.1,0.2-2,0.7-2.9
			s1.2-1.6,2-2.1c0.9-0.5,1.8-0.8,2.9-0.8c1.8,0,3.1,0.5,4.1,1.4c1,0.9,1.5,2.2,1.5,3.9c0,1.5-0.9,3.4-2.6,5.5l-1.2,1.5l-6,7h10.9
			V249.4z"/>
		<path class="st0" d="M337.8,241.4c0,2.6-0.5,4.7-1.5,6.2c-1,1.5-2.5,2.2-4.3,2.2c-1.9,0-3.3-0.7-4.4-2.2c-1-1.5-1.6-3.5-1.6-6.2
			v-3.6c0-2.6,0.5-4.7,1.6-6.1c1-1.5,2.5-2.2,4.3-2.2c1.9,0,3.3,0.7,4.4,2.2c1,1.5,1.6,3.5,1.6,6.2V241.4z M337,237.7
			c0-2.4-0.5-4.3-1.3-5.6c-0.9-1.3-2.2-2-3.8-2c-1.7,0-2.9,0.7-3.8,2c-0.9,1.3-1.3,3.2-1.3,5.7v3.5c0,2.4,0.5,4.3,1.4,5.6
			c0.9,1.3,2.2,2,3.8,2c1.6,0,2.9-0.7,3.8-2c0.9-1.3,1.3-3.2,1.3-5.7V237.7z"/>
		<path class="st0" d="M348.4,249.4h-0.7v-18.8l-5.7,2.1v-0.8l6.3-2.3h0.1V249.4z"/>
		<path class="st0" d="M368.3,230.1l-8.7,19.3h-0.7l8.6-19h-11.8v-0.7h12.6V230.1z"/>
	</g>
</g>
</svg>
